<svg width="279" height="361" fill="none" xmlns="http://www.w3.org/2000/svg"><g clip-path="url(#clip0_64_1316)"><path d="M-10.167 109.805C-7.72 89.135 9.916 70.96 33.482 59.213c23.565-11.747 52.656-17.595 82.1-20.116 15.012-1.285 30.504-1.764 45.617.706 41.302 6.706 73.446 37.635 69.005 66.347-2.7 17.519-17.056 34.207-10.723 51.701 2.776 7.663 9.31 14.57 13.019 22.082 11.505 23.115-4.97 46.584-9.815 70.052-2.296 11.117-1.942 22.536-3.204 33.779-2.472 21.804-12.741 44.491-38.174 56.339-17.812 8.293-40.999 10.133-63.126 8.167-22.128-1.966-43.599-7.411-64.868-12.83-11.833-3.025-23.692-6.05-35.525-9.075-8.78-2.244-17.813-4.563-25.079-8.823-12.514-7.31-17.712-19.233-17.535-30.224.176-10.991 4.895-21.427 8.805-31.888 7.04-18.855 11.43-38.921 4.769-58.482-3.684-10.789-10.622-21.073-13.978-31.888-4.541-14.645-2.22-29.946 6.535-42.954l8.528-12.301z" fill="#91C5DE"/><path d="M107.836 153.742a.816.816 0 01-.807-.731.842.842 0 01.706-.933 224.14 224.14 0 0039.208-8.722c3.861-1.235 7.872-2.647 11.026-5.192 2.649-2.168 5.298-5.975 4.769-10.184-.076-.631-.227-1.236-.379-1.841-.303-1.26-.605-2.546-.404-3.907.505-3.731 3.936-5.369 7.242-6.982 2.674-1.286 5.424-2.622 6.509-4.991 1.06-2.32.278-4.916-.53-7.638-.479-1.588-.958-3.227-1.11-4.89-.429-4.941 2.17-9.176 4.693-13.31 1.489-2.42 3.028-4.941 3.911-7.563 3.078-9.05-1.514-18.679-6.459-27.753a.798.798 0 01.328-1.11.8.8 0 011.11.328c5.122 9.403 9.84 19.385 6.56 29.065-.934 2.798-2.548 5.394-4.088 7.89-2.497 4.058-4.844 7.915-4.465 12.301.126 1.487.605 3.05 1.059 4.563.858 2.924 1.766 5.923.454 8.797-1.337 2.924-4.364 4.386-7.291 5.798-3.053 1.462-5.929 2.848-6.333 5.722-.151 1.059.101 2.168.378 3.302.152.681.303 1.336.404 2.017.53 4.084-1.514 8.545-5.349 11.671-3.381 2.748-7.569 4.235-11.581 5.495a227.379 227.379 0 01-39.485 8.773c0 .025-.051.025-.076.025zM.833 189.335a56.8 56.8 0 01-7.569-.529c-.454-.051-.757-.479-.706-.933.05-.454.504-.756.933-.706 22.102 3.051 36.484-7.638 52.505-25.888 1.06-1.21 1.892-2.243 2.599-3.101 2.7-3.327 3.709-4.562 9.714-6.554 3.002-1.008 6.181-1.159 9.26-1.31 2.32-.101 4.717-.227 6.988-.706 10.925-2.37 17.964-12.629 24.221-22.939l11.606-19.082c1.514-2.471 2.826-4.891 2.448-7.311-.581-3.932-5.046-5.923-9.563-7.638-3.002-1.134-9.89-4.386-9.158-10.184.05-.453.479-.756.933-.705a.81.81 0 01.707.932c-.606 4.74 6.03 7.638 8.099 8.42 3.683 1.386 9.84 3.705 10.622 8.923.454 2.975-1.01 5.672-2.675 8.42l-11.606 19.082c-6.459 10.612-13.725 21.174-25.28 23.695-2.398.53-4.87.63-7.242.756-3.103.152-6.03.303-8.83 1.236-5.551 1.84-6.334 2.823-8.932 6.024a85.527 85.527 0 01-2.624 3.151c-14.558 16.486-27.78 26.947-46.45 26.947z" fill="#FFD878"/><path d="M162.233 30.854c3.583 2.345 5.753 6.252 8.452 9.58 4.289 5.242 10.547 10.385 9.689 17.09-.606 4.714-4.794 8.697-4.264 13.436.151 1.235.605 2.445.605 3.705-.025 3.1-2.876 5.344-5.399 7.184-3.911 2.849-7.998 6.554-8.175 11.37-4.44-2.194-6.08-7.815-5.727-12.756.353-4.94 2.195-9.654 2.7-14.595.504-4.916-.782-10.562-4.996-13.133-2.548-1.563-5.929-1.84-7.897-4.084-2.675-3.076-1.186-7.79.429-11.52-2.725.882-5.98-1.185-6.358-4.033-1.11-9 17.081-4.79 20.941-2.244z" fill="#FFD878"/><path d="M128.5 23.165c-10.698 1.488-21.194 7.26-31.715 4.866-7.746-1.765-13.75-7.613-20.84-11.117-12.44-6.126-28.536-4.21-39.133 4.689-5.525 4.638-9.739 11.015-16.299 14.066-5.677 2.646-12.212 2.394-18.469 2.596a95.086 95.086 0 00-7.998.58c-19.024 2.193-35.777 14.141-42.816 31.938a51.04 51.04 0 00-1.362 3.907c-1.666 5.621-2.549 12.881 1.034 17.948 2.22 3.126 5.652 5.142 8.023 8.142 4.718 6.025 5.046 11.344 2.145 18.15-3.734 8.772-5.677 18.2-.379 26.947 11.581 19.107 33.33 1.361 48.367 11.898 2.952 2.067 3.583 4.915 5.88 7.436 4.39 4.79 10.016 2.193 14.481-.706 6.333-4.109 11.278-10.108 16.274-15.654 1.11-1.235 3.255-3.277 5.122-4.336 5.374-2.546 8.326-3.125 14.255-3.277 7.166-.176 13.625 3.958 20.538 5.773 6.56 1.739 13.65 1.336 19.982-1.084 7.645-2.949 15.315-8.923 23.137-6.428 2.22.706 4.213 2.067 6.509 2.42 5.349.782 9.689-4.033 12.59-8.545 4.542-7.109 8.402-15.654 5.98-23.696-2.296-7.562-9.916-14.494-7.14-21.88 1.665-4.462 6.509-6.78 9.941-10.108 3.658-3.555 5.828-8.596 5.853-13.663 0-1.74-.202-3.554.505-5.167.656-1.488 1.993-2.546 3.078-3.756 16.501-18.83-24.221-33.779-37.543-31.939z" fill="#FFD878"/><path d="M173.461 49.13c-.429-2.017-1.615-3.806-2.751-5.546l-4.163-6.277c-1.211-1.84-2.472-3.705-4.264-5.016-3.078-2.269-7.215-2.596-11.126-2.647-3.86-.075-12.212-1.815-16.097-1.537-7.04.479-14.23 3.68-20.614 6.63-6.383 2.948-7.417 7.713-9.562 14.191-1.337 4.059-.959 9.125 2.574 11.646 1.463 1.034 3.279 1.513 5.096 1.84a40.096 40.096 0 0016.955-.605c4.668-1.16 9.108-3.176 13.852-3.856 7.619-1.11 15.668 1.411 21.042 6.63 1.337 1.31 2.674 2.822 4.567 3.175 4.768.857 2.825-4.94 3.027-7.184.328-3.882 2.296-7.562 1.464-11.444z" fill="#FFD878"/><path d="M-46.802 47.063a.772.772 0 01-.505-.177.81.81 0 01-.126-1.16c7.72-9.704 19.73-16.031 32.119-16.914 3.38-.252 6.862-.1 10.193.05 5.904.253 11.505.48 16.904-1.184 4.567-1.412 8.604-4.059 12.666-6.907l3.86-2.723c8.604-6.075 17.485-12.351 27.602-15.73 10.471-3.503 25.206-3.982 35.147 5.168.883.832 1.74 1.715 2.548 2.572 1.463 1.563 2.851 3.025 4.541 4.159 5.248 3.479 11.657 2.722 18.444 1.916 5.727-.68 11.631-1.387 16.98.58 2.246.831 4.315 2.092 6.308 3.327 2.775 1.714 5.399 3.327 8.402 3.781 1.059.151 2.144.176 3.28.202 1.816.025 3.683.05 5.449.706 2.877 1.058 4.895 3.554 6.485 5.848a60.021 60.021 0 017.468 14.797.834.834 0 01-.505 1.058.834.834 0 01-1.059-.504 58.047 58.047 0 00-7.267-14.393c-1.438-2.093-3.255-4.336-5.702-5.244-1.514-.554-3.154-.58-4.92-.605-1.161-.025-2.346-.025-3.532-.201-3.356-.504-6.232-2.294-9.033-4.008-1.917-1.185-3.91-2.395-6.005-3.176-4.995-1.84-10.697-1.16-16.223-.505-6.787.807-13.801 1.639-19.553-2.167-1.842-1.236-3.356-2.824-4.82-4.387-.782-.831-1.614-1.714-2.472-2.495C80.46.1 66.407.58 56.366 3.932c-9.89 3.302-18.67 9.503-27.174 15.503-1.286.907-2.573 1.815-3.885 2.722-4.188 2.924-8.351 5.647-13.12 7.134-5.677 1.74-11.657 1.487-17.46 1.26-3.305-.15-6.71-.277-10.016-.05-11.934.832-23.49 6.932-30.933 16.284-.1.177-.328.278-.58.278z" fill="#FFD878"/><path d="M13.297 361h21.774c5.727-21.527 11.43-43.055 17.157-64.582 6.535-24.603 13.095-49.231 18.191-73.859 2.65-12.78 4.92-25.788 4.012-37.635-.782-10.235-3.356-26.494-11.556-15.377-7.317 9.932-16.147 36.803-15.214 47.365.404 4.74 1.59 9.277.63 14.394-1.891 9.907-11.1 18.276-12.791 28.182-1.489 8.647 3.33 15.427 1.413 24.074-2.22 10.032-12.262 17.494-14.533 27.501-1.388 6.075.48 11.672-1.261 17.721-2.523 8.874-12.136 16.94-10.824 24.855.48 2.824 2.422 4.638 3.002 7.361z" fill="#F46938"/><path d="M128.777 361c16.198 0 29.394-13.032 29.495-29.216.05-5.898.227-11.217.731-15.15 3.179-26.669 3.331-49.936 11.834-79.505 2.75-9.554 22.833-64.633 19.78-70.254-2.018-3.731-10.748-10.133-14.204-12.579-51.496-36.601-98.829.757-109.148 9.958a21.218 21.218 0 00-3.633 4.184c-3.81 5.924-5.98 12.453-7.418 18.629.152 37.559-11.656 73.354-19.881 109.653-3.936 17.343-4.088 35.014-9.689 52.004a188.826 188.826 0 00-3.633 12.301h105.766V361z" fill="#F46938"/><path d="M184.108 126.24l24.877 31.233 11.051-10.361-25.23-26.67-10.698 5.798z" fill="#F48F7D"/><path d="M196.774 123.366c.403-1.89.933-3.73 1.286-5.545l1.918-9.529c.58-2.924-.076-5.949-1.867-8.318-1.287-1.715-2.675-3.101-3.179-3.227-.252-.53-.681-.958-1.287-1.11a1.87 1.87 0 00-1.817.631l.026-.126a1.866 1.866 0 00-1.388-2.218 1.868 1.868 0 00-2.22 1.386l-2.498 10.865c-.454.05-.934.151-1.413.277l2.296-9.982a1.866 1.866 0 00-1.388-2.219 1.868 1.868 0 00-2.22 1.387l-3.356 14.595c-.05.227-.05.454-.025.655a11.52 11.52 0 00-.277 1.009c-.455-1.009-1.64-1.462-2.624-1.009a2.004 2.004 0 00-1.01 2.622l4.037 8.999c.379.857 3.255 4.311 6.535 5.848 5.046 2.37 8.856 2.521 10.471-4.991z" fill="#F48F7D"/><path d="M187.64 163.245s12.994 11.167 41.933 31.283c4.39 3.05 2.12.126-1.185-4.058l-25.71-32.569c-4.517-5.722-3.583-14.041 2.094-18.628 5.298-4.286 12.993-3.857 17.813.958l49.048 57.019c7.645 9.302 7.493 18.755 7.317 23.066-.455 11.368-15.946 18.25-31.084 15.049l-76.55-15.654 16.324-56.466z" fill="#F46938"/><path d="M211.634 171.942c2.776 2.899 6.005 5.546 7.443 9.302 1.136 2.949 1.111 6.554 3.407 8.721 1.69 1.614 4.465 2.219 5.298 4.387 1.135 2.898-1.993 6.629-.025 9.049 3.103-2.596 6.106-6.529 4.743-10.335-.505-1.412-1.539-2.571-2.548-3.68-10.723-11.898-18.847-25.334-28.637-37.837-3.456 4.336 7.443 17.368 10.319 20.393z" fill="#F46938"/><path d="M151.535 153.363c0 7.588-9.058 13.738-20.235 13.738s-20.235-6.15-20.235-13.738c0-7.587 9.058-13.738 20.235-13.738 11.152 0 20.235 6.151 20.235 13.738zm-25.382 132.24l-42.866-17.771-3.558 13.587 38.552 14.746 7.872-10.562z" fill="#F48F7D"/><path d="M144.37 307.055l.101.075c.807.656 1.993.53 2.649-.277a1.88 1.88 0 00-.278-2.647l-8.855-7.159c.151-.454.277-.932.378-1.411l8.149 6.579a1.886 1.886 0 002.65-.277 1.881 1.881 0 00-.278-2.647l-11.909-9.63a1.368 1.368 0 00-.605-.302c-.253-.252-.53-.479-.808-.706a2.07 2.07 0 002.12-1.966c.025-1.109-.858-2.067-1.968-2.092l-10.092-.328c-.959-.025-1.741.63-1.994 1.512-2.195.051-3.885.53-6.307 1.866-4.996 2.722-6.283 6.982-.101 11.847 1.564 1.236 3.027 2.546 4.541 3.681l7.897 6.05c2.423 1.84 5.526 2.596 8.503 2.016 2.145-.428 4.062-1.059 4.39-1.487.581 0 1.186-.202 1.59-.681.454-.63.504-1.386.227-2.016z" fill="#F48F7D"/><path d="M116.112 193.872c-1.388.58-37.215 31.359-53.918 45.752-3.936 3.378-3.002 9.68 1.74 11.797l35.349 15.78c6.484 2.899 9.436 10.487 6.56 17.016-2.7 6.1-9.588 9.175-15.92 7.058l-63.758-21.2c-12.54-4.159-18.04-18.805-11.329-30.174l50.84-74.085 50.436 28.056z" fill="#F46938"/><path d="M116.112 194.502c-2.7 2.067-5.223 4.387-7.797 6.605l-7.67 6.756-15.264 13.587-15.517 13.309-3.886 3.328-1.942 1.663c-.631.555-1.337 1.135-1.817 1.639-2.094 2.193-2.12 5.949-.126 8.192.933 1.21 2.397 1.714 3.986 2.445l4.668 2.093 9.335 4.159 18.671 8.344c1.564.655 3.255 1.588 4.567 2.823a13.694 13.694 0 013.179 4.386c1.539 3.302 1.69 7.21.378 10.613-1.261 3.403-3.936 6.251-7.266 7.738-3.305 1.513-7.267 1.538-10.597.303l-38.83-12.906-19.402-6.454-4.844-1.613-2.473-.983c-.782-.429-1.59-.807-2.321-1.286-3.003-1.89-5.5-4.562-7.241-7.638-1.741-3.075-2.75-6.604-2.8-10.158a21.593 21.593 0 012.37-10.26c1.64-3.1 11.809-16.813 11.809-16.813-3.407 5.873-7.014 11.746-10.294 17.62a20.077 20.077 0 00-2.195 9.427c.05 3.278.984 6.504 2.598 9.353 1.615 2.848 3.911 5.293 6.661 7.033.707.428 1.438.781 2.145 1.184l2.27.908 4.845 1.613 19.402 6.453 38.83 12.907c3.053 1.134 6.408 1.084 9.335-.252 2.902-1.311 5.248-3.782 6.358-6.781 1.136-2.975 1.009-6.403-.328-9.277-1.337-2.924-3.81-5.142-6.888-6.352l-18.67-8.344-9.336-4.159-4.667-2.092c-.808-.379-1.514-.631-2.372-1.11-.832-.453-1.615-1.058-2.22-1.789a7.742 7.742 0 01-1.892-5.269c0-1.916.782-3.806 2.068-5.218.707-.706 1.312-1.21 1.968-1.789l1.943-1.664 3.886-3.328 15.516-13.309 15.845-12.957 7.948-6.428c2.674-2.092 5.273-4.311 8.074-6.252z" fill="#DB5931"/><path d="M159.155 80.715l20.184-7.89a3.427 3.427 0 014.466 1.966l18.141 46.382a3.423 3.423 0 01-1.968 4.462l-20.185 7.89a3.425 3.425 0 01-4.465-1.966l-18.141-46.382c-.681-1.765.202-3.756 1.968-4.462z" fill="#001443"/><path d="M154.866 41.693l-.353.252c-3.608 2.622-34.39 25.435-37.316 40.106l1.236 10.537c1.892 15.931 14.886 26.014 29.141 24.325 10.168-1.21 16.122-6.856 19.579-16.687 2.422-6.832 3.028-14.192 2.17-21.376l-3.204-26.796c-1.06-9.15-4.618-5.748-11.253-10.36z" fill="#F48F7D"/><path d="M141.796 91.529l-20.411.176c-.101 0-.177 0-.278.026-1.715.201-3.027 2.142-3.002 4.41l.429 45.904c.025 3.63 1.488 7.008 4.062 9.554 2.599 2.521 6.005 3.907 9.638 3.857.505 0 1.009-.051 1.489-.101a13.474 13.474 0 0011.858-13.537l-.429-45.903c0-1.21-.429-2.395-1.135-3.227-.606-.756-1.413-1.16-2.221-1.16z" fill="#F48F7D"/><path d="M141.418 75.623c.202 1.614-.505 3.025-1.539 3.176-1.06.126-2.069-1.084-2.271-2.697-.202-1.613.505-3.025 1.539-3.176 1.035-.126 2.069 1.084 2.271 2.697z" fill="#001443"/><path d="M139.147 72.926l3.23-.404-1.741 2.244-1.489-1.84zm27.123-.353c.202 1.613-.505 3.025-1.539 3.176-1.06.126-2.069-1.084-2.271-2.697-.202-1.614.505-3.025 1.539-3.176 1.06-.152 2.069 1.058 2.271 2.697z" fill="#001443"/><path d="M163.999 69.876l3.255-.404-1.766 2.244-1.489-1.84z" fill="#001443"/><path d="M115.607 82.404c-3.986.479-6.762 4.739-6.181 9.553.555 4.79 4.263 8.319 8.25 7.84 3.986-.479 6.762-4.739 6.181-9.554-.555-4.79-4.264-8.293-8.25-7.84z" fill="#F48F7D"/><path d="M152.519 75.094c1.893 2.47 3.381 5.142 4.769 7.865l1.009 2.067.227.529c.101.227.202.53.202.807a1.866 1.866 0 01-.656 1.487c-.53.378-.833.378-1.211.53l-1.11.352c-.732.202-1.489.429-2.246.58.631-.454 1.312-.832 1.968-1.235l1.009-.555c.303-.176.783-.378.833-.479a.779.779 0 00.151-.58c-.025-.1-.05-.176-.1-.302l-.278-.504-1.06-2.017c-1.362-2.798-2.624-5.57-3.507-8.545zm3.406 39.223a15.885 15.885 0 01-4.339 2.697c-1.691.479-3.482.505-5.172.378-3.407-.277-6.687-1.184-9.84-2.369a43.633 43.633 0 01-8.932-4.663l-2.044-1.488c-.63-.554-1.312-1.058-1.942-1.613l-1.59-1.991a61.252 61.252 0 01-1.413-2.093c.656.53 1.312 1.034 1.943 1.563l2.018 1.437 1.867 1.563 1.968 1.437a41.42 41.42 0 008.629 4.512c3.028 1.159 6.207 2.017 9.436 2.269 1.615.1 3.179.1 4.668-.353 1.615-.177 3.179-.706 4.743-1.286z" fill="#E56E5E"/><path d="M131.704 70.33a.905.905 0 01-.631-.278c-.302-.353-.277-.857.076-1.16.278-.226 6.636-5.721 13.397-2.772.429.176.606.655.429 1.084-.176.428-.681.605-1.085.428-5.803-2.52-11.58 2.47-11.631 2.521a.859.859 0 01-.555.176z" fill="#FFD878"/><path d="M151.561 98.511c-1.918 0-3.987-.453-5.904-1.764a.56.56 0 01-.152-.756.561.561 0 01.757-.151c3.23 2.193 6.913 1.688 9.436.907.278-.1.581.076.682.353.1.277-.076.58-.354.68-1.286.404-2.825.731-4.465.731z" fill="#fff"/><path d="M159.584 66.775a.8.8 0 01-.631-.302c-.277-.353-.227-.883.126-1.16.177-.151 4.365-3.479 9.411-3.277a.818.818 0 01.782.857c-.025.454-.378.832-.857.782-4.466-.177-8.276 2.873-8.301 2.924-.177.1-.354.176-.53.176z" fill="#FFD878"/></g><defs><clipPath id="clip0_64_1316"><path fill="#fff" transform="translate(-63)" d="M0 0h342v361H0z"/></clipPath></defs></svg>