<svg width="206" height="183" fill="none" xmlns="http://www.w3.org/2000/svg"><g clip-path="url(#clip0_63_1218)"><path d="M98.5 19c26.8 18.1 53.6 36.1 80.5 54.2 3.8 2.6 7.7 5.2 11.5 7.8 10.7 7.2 20.7-10.1 10.1-17.3-26.8-18-53.6-36.1-80.4-54.2-3.8-2.6-7.7-5.2-11.5-7.8C97.9-5.5 87.9 11.8 98.5 19z" fill="#FAC9D6"/><path d="M182.6 106.4v-49c0-12.9-20-12.9-20 0v49c0 12.8 20 12.8 20 0zM96.5 1.7C69.7 19.8 42.9 37.9 16.1 55.9c-3.8 2.6-7.7 5.2-11.5 7.8-10.7 7.2-.7 24.5 10 17.3 26.8-18.1 53.6-36.1 80.5-54.2 3.8-2.6 7.7-5.2 11.5-7.8 10.6-7.2.6-24.5-10.1-17.3z" fill="#FAC9D6"/><path d="M42.6 106.4v-49c0-12.9-20-12.9-20 0v49c0 12.8 20 12.8 20 0zm1-91v20c0 12.9 20 12.9 20 0v-20c0-12.9-20-12.9-20 0z" fill="#FAC9D6"/><path d="M26.9 134c19 55.1 103 64.7 138.4 21 5-6.2 9.6-13.3 11.9-21 3.7-12.4-15.6-17.6-19.3-5.3l-.3.9c-.1.4-.3.7-.4 1.1-.7 2.2 1.2-2.3.1-.2-1.6 3.1-3.1 6.1-5.1 9-.3.5-2.4 3.2-.8 1.2-.6.8-1.3 1.6-2 2.4-1.9 2.1-3.9 4.1-6 6-.5.4-.9.8-1.4 1.2-2.3 1.9.9-.6-.6.5-1.2.9-2.4 1.7-3.7 2.5-2.6 1.6-6 3.4-8.3 4.4-14 5.7-31.8 6.6-46.9 2.4-6.3-1.8-11.4-4-17.1-7.9-.7-.5-1.4-1-2.1-1.4-1.5-1.1 1.7 1.4-.7-.5-1-.8-1.9-1.6-2.8-2.4-2.1-1.9-4.1-4-6-6.2-.3-.4-.7-.8-1-1.2-1.6-2 1.2 1.7-.3-.4-.7-.9-1.3-1.9-2-2.9-1.2-1.8-2.2-3.6-3.2-5.5-.1-.3-1.9-3.3-1.7-3.5-.1.1 1.1 3 .3.7-1.8-5.1-6.9-8.5-12.3-7-4.6 1.2-8.4 7-6.7 12.1z" fill="#FBAE17"/></g><defs><clipPath id="clip0_63_1218"><path fill="#fff" d="M0 0h205.2v182.5H0z"/></clipPath></defs></svg>