<svg width="32" height="32" fill="none" xmlns="http://www.w3.org/2000/svg"><path d="M25.26 19.717c-.636-.663-1.405-1.018-2.219-1.018-.807 0-1.582.348-2.245 1.011l-2.076 2.07c-.171-.093-.342-.178-.506-.263a8.357 8.357 0 01-.65-.348c-1.944-1.235-3.71-2.843-5.404-4.925-.82-1.037-1.372-1.91-1.773-2.797.539-.492 1.038-1.005 1.524-1.497.183-.184.367-.374.551-.558 1.379-1.38 1.379-3.165 0-4.544L10.67 5.055a25.642 25.642 0 01-.611-.623A31.034 31.034 0 008.824 3.21c-.637-.63-1.398-.965-2.2-.965-.8 0-1.575.335-2.232.965l-.013.013-2.232 2.253A4.804 4.804 0 00.723 8.528c-.158 1.917.407 3.703.84 4.872 1.064 2.87 2.653 5.529 5.023 8.379 2.876 3.434 6.337 6.145 10.29 8.056 1.51.716 3.526 1.563 5.778 1.707.138.007.282.013.413.013 1.517 0 2.791-.544 3.79-1.628.006-.013.019-.02.026-.033.34-.413.735-.788 1.149-1.188.282-.27.57-.552.853-.847.65-.677.992-1.465.992-2.272 0-.814-.348-1.596-1.011-2.252l-3.605-3.618zm2.351 6.914c-.006 0-.006.006 0 0-.256.276-.518.525-.8.801-.427.407-.86.834-1.268 1.313-.663.71-1.445 1.044-2.469 1.044-.098 0-.204 0-.302-.006-1.95-.125-3.762-.887-5.122-1.537-3.716-1.799-6.98-4.353-9.691-7.59-2.24-2.7-3.737-5.194-4.728-7.873-.61-1.635-.834-2.91-.735-4.11a3.014 3.014 0 01.906-1.95l2.239-2.24c.322-.302.663-.466.998-.466.414 0 .748.25.959.46l.02.02c.4.373.78.76 1.181 1.175.204.21.414.42.624.636l1.793 1.793c.696.696.696 1.34 0 2.036-.19.19-.375.38-.565.564a34.259 34.259 0 01-1.648 1.602c-.013.013-.027.02-.033.033-.565.565-.46 1.117-.342 1.49l.02.06c.466 1.13 1.123 2.193 2.121 3.46l.007.007c1.812 2.232 3.723 3.972 5.83 5.305.27.171.545.309.808.44.236.119.46.23.65.348.026.013.053.033.079.046.223.112.433.164.65.164.545 0 .886-.341.998-.453l2.246-2.245c.223-.224.578-.493.991-.493.407 0 .742.256.946.48l.013.013 3.618 3.618c.676.67.676 1.359.006 2.055zM17.486 7.845a8.326 8.326 0 014.53 2.35 8.37 8.37 0 012.352 4.531.881.881 0 00.873.736c.053 0 .098-.007.151-.013a.887.887 0 00.729-1.025 10.128 10.128 0 00-2.843-5.483 10.127 10.127 0 00-5.483-2.843.891.891 0 00-1.025.723.877.877 0 00.716 1.024zm14.262 6.323a16.662 16.662 0 00-4.682-9.028A16.661 16.661 0 0018.038.458a.883.883 0 00-1.018.722.89.89 0 00.729 1.025c3.06.518 5.85 1.97 8.07 4.182a14.875 14.875 0 014.183 8.07.881.881 0 00.873.736c.052 0 .098-.007.15-.014a.87.87 0 00.723-1.01z" fill="#FBAE17"/></svg>