<svg width="18" height="18" fill="none" xmlns="http://www.w3.org/2000/svg"><path d="M14.067 10.672c-.286-.298-.632-.458-.998-.458-.364 0-.713.157-1.011.455l-.934.931-.227-.118a3.407 3.407 0 01-.293-.157c-.874-.555-1.67-1.28-2.432-2.216-.369-.467-.617-.86-.797-1.259.242-.221.467-.452.685-.673l.248-.251c.62-.62.62-1.425 0-2.045l-.806-.807a12.103 12.103 0 01-.275-.28 13.947 13.947 0 00-.556-.55c-.286-.284-.629-.434-.99-.434-.36 0-.709.15-1.004.434l-.006.006-1.005 1.013c-.378.379-.594.84-.64 1.374-.072.863.182 1.667.377 2.193.48 1.291 1.194 2.488 2.26 3.77a13.904 13.904 0 004.631 3.626c.68.322 1.587.703 2.6.768.062.003.127.006.186.006.683 0 1.256-.245 1.705-.733.003-.006.01-.009.012-.015.154-.186.331-.354.517-.535.127-.12.257-.248.384-.38.293-.305.447-.66.447-1.023 0-.367-.157-.718-.455-1.014l-1.623-1.628zm1.058 3.112c-.003 0-.003.003 0 0-.115.124-.233.236-.36.36a7.78 7.78 0 00-.57.591c-.3.32-.65.47-1.112.47-.044 0-.091 0-.136-.003-.877-.056-1.693-.399-2.304-.691a13.125 13.125 0 01-4.362-3.416C5.274 9.88 4.601 8.758 4.154 7.552c-.275-.736-.375-1.309-.331-1.85a1.36 1.36 0 01.408-.877l1.007-1.008c.145-.136.299-.21.45-.21.186 0 .336.113.43.207l.01.01c.18.167.351.342.532.528.091.095.186.19.28.287l.807.806c.313.313.313.603 0 .916-.086.086-.168.172-.254.254-.248.254-.485.49-.742.721-.006.006-.012.01-.015.015-.254.254-.206.502-.153.67l.009.027c.21.509.505.987.954 1.558l.003.003c.816 1.004 1.675 1.787 2.624 2.387.121.077.245.139.363.198.107.053.207.103.293.157.012.005.023.014.035.02.1.05.195.074.293.074.245 0 .399-.154.449-.204l1.01-1.01c.101-.1.26-.222.447-.222.183 0 .334.115.425.216l.006.006 1.628 1.628c.305.301.305.611.003.925zM10.569 5.33c.774.13 1.477.497 2.039 1.058a3.766 3.766 0 011.057 2.039c.033.195.201.33.393.33a.4.4 0 00.396-.467 4.557 4.557 0 00-1.28-2.466 4.557 4.557 0 00-2.466-1.28.401.401 0 00-.461.325.395.395 0 00.322.461zm6.418 2.846a7.497 7.497 0 00-2.107-4.063 7.498 7.498 0 00-4.063-2.107.397.397 0 10-.13.786 6.714 6.714 0 013.632 1.882A6.695 6.695 0 0116.2 8.306c.032.195.2.33.393.33a.391.391 0 00.393-.46z" fill="#AC3E7C"/></svg>