<svg width="120" height="120" fill="none" xmlns="http://www.w3.org/2000/svg"><g clip-path="url(#clip0_44_1340)"><path d="M60.013 120.026c33.145 0 60.013-26.868 60.013-60.013C120.026 26.87 93.158 0 60.013 0 26.87 0 0 26.869 0 60.013c0 33.145 26.869 60.013 60.013 60.013z" fill="#fff"/><path d="M102.266 102.232c23.365-23.364 23.365-61.246 0-84.61-23.364-23.365-61.246-23.365-84.61 0-23.365 23.364-23.365 61.246 0 84.61 23.364 23.365 61.246 23.365 84.61 0z" fill="#FEFEFE"/><path d="M102.081 102.025c23.293-23.293 23.293-61.058 0-84.35-23.293-23.293-61.058-23.293-84.35 0-23.294 23.292-23.294 61.058 0 84.35 23.292 23.293 61.057 23.293 84.35 0z" fill="#FDFDFD"/><path d="M59.856 119.239c32.84 0 59.462-26.622 59.462-59.462S92.696.315 59.856.315.394 26.937.394 59.777s26.622 59.462 59.462 59.462z" fill="#FCFCFC"/><path d="M59.803 118.977c32.739 0 59.279-26.54 59.279-59.279C119.082 26.96 92.542.42 59.803.42 27.065.42.525 26.96.525 59.698c0 32.739 26.54 59.279 59.278 59.279z" fill="#FBFBFB"/><path d="M101.525 101.405c23.078-23.077 23.078-60.494 0-83.571-23.077-23.078-60.494-23.078-83.571 0-23.078 23.077-23.078 60.494 0 83.571 23.078 23.078 60.494 23.078 83.571 0z" fill="#FAFAFA"/><path d="M101.359 101.217c23.006-23.006 23.006-60.306 0-83.312s-60.306-23.006-83.312 0-23.006 60.306 0 83.312 60.306 23.006 83.312 0z" fill="#F9F9F9"/><path d="M59.646 118.242c32.448 0 58.753-26.305 58.753-58.754C118.399 27.04 92.094.735 59.646.735 27.197.735.892 27.04.892 59.488c0 32.45 26.305 58.754 58.754 58.754z" fill="#F8F8F8"/><path d="M101.007 100.823c22.873-22.873 22.873-59.957 0-82.83-22.873-22.873-59.957-22.873-82.83 0-22.872 22.873-22.872 59.957 0 82.83 22.873 22.872 59.957 22.872 82.83 0z" fill="#F7F7F7"/><path d="M59.54 117.717c32.247 0 58.387-26.14 58.387-58.386S91.787.945 59.541.945 1.155 27.085 1.155 59.33s26.14 58.386 58.386 58.386z" fill="#F6F6F6"/><path d="M59.488 117.455c32.145 0 58.203-26.058 58.203-58.203 0-32.144-26.058-58.202-58.203-58.202-32.144 0-58.202 26.058-58.202 58.202 0 32.145 26.058 58.203 58.202 58.203z" fill="#F5F5F5"/><path d="M100.451 100.203c22.658-22.658 22.658-59.393 0-82.05-22.657-22.658-59.392-22.658-82.05 0-22.658 22.657-22.658 59.392 0 82.05 22.658 22.657 59.393 22.657 82.05 0z" fill="#F4F4F4"/><path d="M100.285 100.015c22.585-22.586 22.585-59.205 0-81.79-22.586-22.587-59.205-22.587-81.79 0-22.587 22.585-22.587 59.204 0 81.79 22.585 22.585 59.204 22.585 81.79 0z" fill="#F3F3F3"/><path d="M59.33 116.694c31.84 0 57.652-25.812 57.652-57.652S91.171 1.391 59.331 1.391c-31.84 0-57.652 25.811-57.652 57.651 0 31.84 25.812 57.652 57.652 57.652z" fill="#F2F2F2"/><path d="M99.914 99.601c22.442-22.442 22.442-58.828 0-81.27-22.442-22.443-58.828-22.443-81.27 0C-3.8 40.772-3.8 77.158 18.643 99.6c22.442 22.442 58.828 22.442 81.27 0z" fill="#F1F1F1"/><path d="M99.747 99.413c22.381-22.38 22.381-58.667 0-81.048-22.38-22.381-58.667-22.381-81.048 0-22.38 22.38-22.38 58.667 0 81.048 22.381 22.381 58.668 22.381 81.048 0z" fill="#F0F0F0"/><path d="M59.173 115.933c31.55 0 57.127-25.577 57.127-57.127S90.724 1.68 59.173 1.68c-31.55 0-57.126 25.577-57.126 57.127s25.576 57.127 57.126 57.127z" fill="#EFEFEF"/><path d="M59.121 115.67c31.449 0 56.943-25.494 56.943-56.943 0-31.448-25.494-56.943-56.943-56.943-31.449 0-56.943 25.495-56.943 56.943 0 31.449 25.494 56.943 56.943 56.943z" fill="#EEE"/><path d="M99.21 98.812c22.166-22.166 22.166-58.104 0-80.27-22.165-22.165-58.103-22.165-80.269 0-22.165 22.166-22.165 58.104 0 80.27 22.166 22.165 58.104 22.165 80.27 0z" fill="#EDEDED"/><path d="M99.025 98.605c22.094-22.094 22.094-57.915 0-80.01-22.094-22.093-57.915-22.093-80.01 0-22.093 22.095-22.093 57.916 0 80.01 22.095 22.094 57.916 22.094 80.01 0z" fill="#ECECEC"/><path d="M58.964 114.909c31.144 0 56.391-25.247 56.391-56.392 0-31.144-25.247-56.391-56.392-56.391-31.144 0-56.391 25.247-56.391 56.391 0 31.145 25.247 56.392 56.392 56.392z" fill="#EBEBEB"/><path d="M58.911 114.647c31.043 0 56.208-25.165 56.208-56.208S89.954 2.23 58.911 2.23 2.703 27.396 2.703 58.439s25.165 56.208 56.208 56.208z" fill="#EAEAEA"/><path d="M98.47 97.985c21.878-21.879 21.878-57.351 0-79.23-21.88-21.879-57.352-21.879-79.23 0-21.88 21.879-21.88 57.351 0 79.23 21.878 21.879 57.35 21.879 79.23 0z" fill="#E9E9E9"/><path d="M58.806 114.175c30.855 0 55.867-25.013 55.867-55.867 0-30.855-25.012-55.868-55.867-55.868C27.952 2.44 2.94 27.453 2.94 58.307c0 30.855 25.013 55.868 55.867 55.868z" fill="#E8E8E8"/><path d="M58.754 113.912c30.753 0 55.683-24.93 55.683-55.683S89.507 2.545 58.754 2.545 3.07 27.475 3.07 58.23c0 30.753 24.93 55.683 55.684 55.683z" fill="#E7E7E7"/><path d="M97.97 97.384c21.673-21.674 21.673-56.814 0-78.488-21.674-21.674-56.814-21.674-78.488 0s-21.674 56.814 0 78.488c21.674 21.673 56.814 21.673 78.487 0z" fill="#E6E6E6"/><path d="M97.784 97.177c21.602-21.602 21.602-56.626 0-78.228-21.602-21.602-56.626-21.602-78.228 0-21.602 21.602-21.602 56.626 0 78.228 21.602 21.602 56.626 21.602 78.228 0z" fill="#E5E5E5"/><path d="M58.622 113.125c30.45 0 55.133-24.684 55.133-55.132 0-30.45-24.684-55.133-55.133-55.133C28.174 2.86 3.49 27.544 3.49 57.993c0 30.448 24.684 55.132 55.132 55.132z" fill="#E4E4E4"/><path d="M58.57 112.862c30.347 0 54.948-24.6 54.948-54.948 0-30.347-24.6-54.949-54.948-54.949-30.347 0-54.949 24.602-54.949 54.949 0 30.347 24.602 54.948 54.949 54.948z" fill="#E3E3E3"/><path d="M97.247 96.576c21.387-21.387 21.387-56.062 0-77.449s-56.062-21.387-77.448 0c-21.387 21.387-21.387 56.062 0 77.449 21.386 21.386 56.061 21.386 77.448 0z" fill="#E2E2E2"/><path d="M97.062 96.369c21.315-21.315 21.315-55.874 0-77.189-21.315-21.315-55.874-21.315-77.189 0-21.315 21.315-21.315 55.874 0 77.189 21.315 21.315 55.874 21.315 77.189 0z" fill="#E1E1E1"/><path d="M58.412 112.128c30.058 0 54.424-24.367 54.424-54.424 0-30.058-24.366-54.424-54.424-54.424C28.355 3.28 3.99 27.646 3.99 57.704c0 30.057 24.366 54.424 54.423 54.424z" fill="#E0E0E0"/><path d="M58.36 111.865c29.956 0 54.24-24.284 54.24-54.24 0-29.956-24.284-54.24-54.24-54.24-29.956 0-54.24 24.284-54.24 54.24 0 29.956 24.284 54.24 54.24 54.24z" fill="#DFDFDF"/><path d="M96.525 95.767c21.11-21.11 21.11-55.336 0-76.446s-55.337-21.11-76.447 0-21.11 55.336 0 76.446c21.11 21.111 55.337 21.111 76.447 0z" fill="#DEDEDE"/><path d="M58.255 111.341c29.753 0 53.873-24.12 53.873-53.873 0-29.753-24.12-53.873-53.873-53.873-29.753 0-53.873 24.12-53.873 53.873 0 29.753 24.12 53.873 53.873 53.873z" fill="#DDD"/><path d="M58.203 111.104c29.651 0 53.689-24.037 53.689-53.689 0-29.651-24.038-53.689-53.69-53.689-29.651 0-53.689 24.038-53.689 53.69 0 29.65 24.038 53.688 53.69 53.688z" fill="#DCDCDC"/><path d="M95.988 95.166c20.895-20.895 20.895-54.772 0-75.667-20.895-20.895-54.773-20.895-75.668 0-20.895 20.895-20.895 54.772 0 75.667 20.895 20.895 54.773 20.895 75.668 0z" fill="#DBDBDB"/><path d="M95.802 94.96c20.824-20.824 20.824-54.585 0-75.408-20.823-20.823-54.584-20.823-75.407 0-20.823 20.823-20.823 54.584 0 75.407 20.823 20.824 54.584 20.824 75.407 0z" fill="#DADADA"/><path d="M58.045 110.317c29.347 0 53.138-23.79 53.138-53.138 0-29.347-23.79-53.138-53.138-53.138-29.347 0-53.138 23.79-53.138 53.138 0 29.347 23.79 53.138 53.138 53.138z" fill="#D9D9D9"/><path d="M57.993 110.081c29.26 0 52.98-23.72 52.98-52.98 0-29.26-23.72-52.981-52.98-52.981-29.26 0-52.98 23.72-52.98 52.98 0 29.26 23.72 52.981 52.98 52.981z" fill="#D8D8D8"/><path d="M95.265 94.358c20.618-20.618 20.618-54.047 0-74.665C74.647-.926 41.218-.926 20.6 19.693-.018 40.31-.018 73.74 20.6 94.358c20.618 20.618 54.047 20.618 74.665 0z" fill="#D7D7D7"/><path d="M95.099 94.17c20.546-20.547 20.546-53.86 0-74.406-20.547-20.546-53.86-20.546-74.406 0-20.547 20.547-20.547 53.86 0 74.406 20.546 20.546 53.859 20.546 74.406 0z" fill="#D6D6D6"/><path d="M57.835 109.32c28.956 0 52.43-23.473 52.43-52.43 0-28.956-23.474-52.429-52.43-52.429s-52.43 23.474-52.43 52.43 23.474 52.429 52.43 52.429z" fill="#D5D5D5"/><path d="M94.728 93.757c20.403-20.404 20.403-53.483 0-73.886-20.403-20.404-53.483-20.404-73.886 0C.44 40.273.44 73.353 20.842 93.756c20.403 20.404 53.483 20.404 73.886 0z" fill="#D4D4D4"/><path d="M94.543 93.55c20.331-20.331 20.331-53.295 0-73.626-20.332-20.332-53.295-20.332-73.626 0C.585 40.255.585 73.219 20.917 93.55c20.331 20.331 53.294 20.331 73.626 0z" fill="#D3D3D3"/><path d="M57.678 108.533c28.651 0 51.878-23.227 51.878-51.879 0-28.651-23.227-51.878-51.878-51.878-28.652 0-51.879 23.227-51.879 51.878 0 28.652 23.227 51.879 51.879 51.879z" fill="#D2D2D2"/><path d="M57.625 108.27c28.55 0 51.695-23.144 51.695-51.694 0-28.55-23.145-51.695-51.695-51.695S5.93 28.025 5.93 56.576c0 28.55 23.145 51.694 51.695 51.694z" fill="#D2D2D2"/><path d="M94.024 92.967c20.127-20.126 20.127-52.758 0-72.884-20.126-20.126-52.757-20.126-72.884 0-20.126 20.126-20.126 52.758 0 72.884 20.127 20.126 52.758 20.126 72.884 0z" fill="#D1D1D1"/><path d="M57.52 107.798c28.362 0 51.354-22.992 51.354-51.354 0-28.361-22.992-51.353-51.354-51.353S6.167 28.083 6.167 56.444c0 28.362 22.991 51.354 51.353 51.354z" fill="#D0D0D0"/><path d="M93.654 92.554c19.983-19.983 19.983-52.382 0-72.365C73.67.206 41.272.206 21.289 20.19c-19.983 19.983-19.983 52.382 0 72.365 19.983 19.983 52.382 19.983 72.365 0z" fill="#CFCFCF"/><path d="M93.469 92.347c19.911-19.911 19.911-52.193 0-72.105-19.911-19.91-52.194-19.91-72.105 0-19.911 19.912-19.911 52.194 0 72.105s52.194 19.911 72.105 0z" fill="#CECECE"/><path d="M57.363 107.011c28.057 0 50.802-22.745 50.802-50.803 0-28.057-22.745-50.802-50.802-50.802C29.305 5.406 6.56 28.15 6.56 56.208s22.745 50.803 50.803 50.803z" fill="#CDCDCD"/><path d="M93.098 91.934c19.768-19.768 19.768-51.818 0-71.585C73.331.58 41.281.58 21.513 20.349c-19.768 19.767-19.768 51.817 0 71.585 19.768 19.767 51.817 19.767 71.585 0z" fill="#CCC"/><path d="M92.931 91.746c19.696-19.696 19.696-51.63 0-71.326C73.237.724 41.303.724 21.606 20.42c-19.696 19.696-19.696 51.63 0 71.326 19.696 19.696 51.63 19.696 71.326 0z" fill="#CBCBCB"/><path d="M57.232 106.25c27.753 0 50.251-22.499 50.251-50.252 0-27.753-22.498-50.251-50.251-50.251-27.753 0-50.252 22.498-50.252 50.251 0 27.753 22.498 50.252 50.252 50.252z" fill="#CACACA"/><path d="M57.18 106.014c27.665 0 50.093-22.428 50.093-50.094 0-27.667-22.428-50.094-50.094-50.094S7.085 28.253 7.085 55.92c0 27.666 22.428 50.094 50.094 50.094z" fill="#C9C9C9"/><path d="M92.413 91.126c19.491-19.491 19.491-51.093 0-70.584-19.491-19.49-51.092-19.49-70.583 0-19.491 19.491-19.491 51.093 0 70.584 19.49 19.491 51.092 19.491 70.583 0z" fill="#C8C8C8"/><path d="M92.228 90.919c19.419-19.42 19.419-50.904 0-70.323-19.42-19.42-50.904-19.42-70.324 0-19.419 19.419-19.419 50.904 0 70.323 19.42 19.419 50.904 19.419 70.324 0z" fill="#C7C7C7"/><path d="M57.022 105.226c27.361 0 49.543-22.18 49.543-49.543 0-27.361-22.181-49.543-49.543-49.543S7.479 28.322 7.479 55.683c0 27.362 22.18 49.543 49.543 49.543z" fill="#C6C6C6"/><path d="M56.97 104.99c27.26 0 49.358-22.099 49.358-49.359S84.23 6.271 56.969 6.271c-27.26 0-49.36 22.1-49.36 49.36 0 27.26 22.1 49.359 49.36 49.359z" fill="#C5C5C5"/><path d="M91.69 90.317c19.205-19.203 19.205-50.34 0-69.544-19.203-19.204-50.34-19.204-69.543 0-19.205 19.204-19.205 50.34 0 69.544 19.203 19.205 50.34 19.205 69.544 0z" fill="#C4C4C4"/><path d="M91.505 90.11c19.133-19.131 19.133-50.151 0-69.283-19.132-19.133-50.152-19.133-69.284 0-19.132 19.132-19.132 50.152 0 69.284 19.132 19.132 50.152 19.132 69.284 0z" fill="#C3C3C3"/><path d="M56.812 104.203c26.956 0 48.808-21.852 48.808-48.808S83.768 6.587 56.812 6.587 8.004 28.439 8.004 55.395s21.852 48.808 48.808 48.808z" fill="#C2C2C2"/><path d="M91.153 89.716c19-18.999 19-49.803 0-68.802-18.999-18.999-49.802-18.999-68.802 0-18.999 19-18.999 49.803 0 68.802 19 18.999 49.803 18.999 68.802 0z" fill="#C1C1C1"/><path d="M90.968 89.51c18.928-18.928 18.928-49.615 0-68.543-18.927-18.927-49.615-18.927-68.542 0C3.5 39.895 3.5 70.582 22.426 89.51c18.927 18.927 49.615 18.927 68.542 0z" fill="silver"/><path d="M56.654 103.468c26.666 0 48.284-21.617 48.284-48.283S83.32 6.9 56.654 6.9 8.371 28.52 8.371 55.185s21.617 48.283 48.283 48.283z" fill="#BFBFBF"/><path d="M56.602 103.206c26.565 0 48.1-21.535 48.1-48.1s-21.535-48.1-48.1-48.1-48.1 21.535-48.1 48.1 21.535 48.1 48.1 48.1z" fill="#BEBEBE"/><path d="M90.431 88.908c18.712-18.712 18.712-49.05 0-67.763-18.712-18.712-49.05-18.712-67.763 0-18.712 18.712-18.712 49.05 0 67.763 18.712 18.712 49.05 18.712 67.763 0z" fill="#BDBDBD"/><path d="M90.246 88.701c18.64-18.64 18.64-48.862 0-67.503-18.64-18.64-48.863-18.64-67.503 0s-18.64 48.863 0 67.503c18.64 18.641 48.862 18.641 67.503 0z" fill="#BCBCBC"/><path d="M56.444 102.419c26.26 0 47.549-21.289 47.549-47.55 0-26.26-21.288-47.548-47.549-47.548-26.26 0-47.548 21.288-47.548 47.549 0 26.26 21.288 47.549 47.548 47.549z" fill="#BBB"/><path d="M56.392 102.156c26.159 0 47.365-21.206 47.365-47.365 0-26.159-21.206-47.365-47.365-47.365-26.16 0-47.365 21.206-47.365 47.365 0 26.16 21.206 47.365 47.365 47.365z" fill="#BABABA"/><path d="M89.727 88.118c18.436-18.435 18.436-48.325 0-66.76-18.435-18.436-48.325-18.436-66.76 0-18.436 18.435-18.436 48.325 0 66.76 18.435 18.436 48.325 18.436 66.76 0z" fill="#B9B9B9"/><path d="M56.287 101.684c25.97 0 47.024-21.053 47.024-47.024 0-25.97-21.054-47.024-47.024-47.024-25.97 0-47.024 21.053-47.024 47.024 0 25.97 21.053 47.024 47.024 47.024z" fill="#B8B8B8"/><path d="M56.234 101.421c25.87 0 46.841-20.97 46.841-46.84 0-25.869-20.972-46.84-46.84-46.84-25.87 0-46.84 20.971-46.84 46.84 0 25.87 20.97 46.84 46.84 46.84z" fill="#B7B7B7"/><path d="M89.172 87.499c18.22-18.22 18.22-47.762 0-65.982s-47.762-18.22-65.982 0-18.22 47.761 0 65.982c18.22 18.22 47.761 18.22 65.982 0z" fill="#B6B6B6"/><path d="M88.986 87.292c18.149-18.149 18.149-47.573 0-65.722-18.148-18.149-47.573-18.148-65.721 0-18.149 18.149-18.149 47.573 0 65.722 18.148 18.148 47.573 18.148 65.721 0z" fill="#B5B5B5"/><path d="M56.077 100.634c25.565 0 46.289-20.724 46.289-46.289S81.642 8.056 56.077 8.056 9.787 28.78 9.787 54.346c0 25.564 20.725 46.288 46.29 46.288z" fill="#B4B4B4"/><path d="M56.025 100.398c25.463 0 46.105-20.642 46.105-46.105 0-25.464-20.642-46.106-46.105-46.106-25.464 0-46.106 20.642-46.106 46.106 0 25.463 20.642 46.105 46.106 46.105z" fill="#B3B3B3"/><path d="M88.45 86.69c17.933-17.933 17.933-47.009 0-64.942-17.934-17.933-47.01-17.933-64.943 0-17.934 17.933-17.934 47.01 0 64.942 17.933 17.934 47.009 17.934 64.942 0z" fill="#B2B2B2"/><path d="M88.283 86.502c17.872-17.871 17.872-46.848 0-64.72-17.872-17.871-46.848-17.871-64.72 0-17.872 17.872-17.872 46.849 0 64.72 17.872 17.872 46.848 17.872 64.72 0z" fill="#B1B1B1"/><path d="M55.867 99.637c25.174 0 45.581-20.407 45.581-45.58 0-25.174-20.407-45.581-45.58-45.581-25.174 0-45.582 20.407-45.582 45.58 0 25.174 20.408 45.581 45.581 45.581z" fill="#B0B0B0"/><path d="M55.815 99.375c25.072 0 45.396-20.325 45.396-45.397S80.887 8.58 55.815 8.58 10.418 28.906 10.418 53.978s20.325 45.397 45.397 45.397z" fill="#AFAFAF"/><path d="M87.746 85.864c17.656-17.657 17.656-46.284 0-63.94-17.657-17.657-46.284-17.657-63.941 0-17.657 17.656-17.657 46.283 0 63.94 17.657 17.656 46.284 17.656 63.94 0z" fill="#AEAEAE"/><path d="M55.736 98.876c24.869 0 45.029-20.16 45.029-45.03 0-24.869-20.16-45.029-45.03-45.029-24.868 0-45.029 20.16-45.029 45.03 0 24.869 20.16 45.029 45.03 45.029z" fill="#ADADAD"/><path d="M55.683 98.614c24.768 0 44.846-20.079 44.846-44.846 0-24.768-20.078-44.846-44.846-44.846-24.767 0-44.846 20.078-44.846 44.846 0 24.767 20.079 44.846 44.846 44.846z" fill="#ACACAC"/><path d="M87.208 85.262c17.442-17.441 17.442-45.72 0-63.16-17.441-17.442-45.72-17.442-63.16 0-17.442 17.44-17.442 45.719 0 63.16 17.44 17.442 45.719 17.442 63.16 0z" fill="#ABABAB"/><path d="M87.023 85.056c17.37-17.37 17.37-45.532 0-62.902-17.37-17.37-45.532-17.37-62.901 0-17.37 17.37-17.37 45.532 0 62.902 17.37 17.37 45.531 17.37 62.901 0z" fill="#AAA"/><path d="M55.526 97.853c24.478 0 44.321-19.843 44.321-44.321 0-24.478-19.843-44.321-44.321-44.321-24.478 0-44.321 19.843-44.321 44.32 0 24.479 19.843 44.322 44.321 44.322z" fill="#A9A9A9"/><path d="M86.671 84.661c17.237-17.237 17.237-45.183 0-62.419-17.236-17.237-45.182-17.237-62.419 0-17.236 17.236-17.236 45.182 0 62.419 17.237 17.237 45.183 17.237 62.42 0z" fill="#A8A8A8"/><path d="M55.421 97.354c24.275 0 43.954-19.679 43.954-43.954 0-24.274-19.68-43.953-43.954-43.953-24.275 0-43.954 19.678-43.954 43.953 0 24.275 19.68 43.954 43.954 43.954z" fill="#A7A7A7"/><path d="M55.368 97.092c24.174 0 43.77-19.597 43.77-43.77 0-24.174-19.596-43.77-43.77-43.77-24.173 0-43.77 19.596-43.77 43.77 0 24.173 19.597 43.77 43.77 43.77z" fill="#A6A6A6"/><path d="M86.134 84.06c17.021-17.022 17.021-44.619 0-61.64s-44.618-17.021-61.64 0c-17.02 17.021-17.02 44.618 0 61.64 17.022 17.021 44.619 17.021 61.64 0z" fill="#A5A5A5"/><path d="M85.949 83.853c16.949-16.95 16.949-44.43 0-61.38-16.95-16.95-44.43-16.95-61.38 0-16.95 16.95-16.95 44.43 0 61.38 16.95 16.949 44.43 16.949 61.38 0z" fill="#A4A4A4"/><path d="M53.952 105.699c29.187 0 52.849-23.662 52.849-52.85C106.801 23.662 83.139 0 53.951 0 24.765 0 1.103 23.662 1.103 52.85c0 29.187 23.662 52.849 52.85 52.849z" fill="url(#paint0_linear_44_1340)"/><path opacity=".2" d="M104.492 68.28L81.426 45.212 53.059 25.008 34.77 46.289l.184 1.994s-2.782 3.254-3.989 6.272c-.813 2.02-1.05 3.543-1.05 3.543l-.21 1.548-.419 3.621 3.333 3.359-3.99 3.726 1.995 1.994-3.883.21-.21 1.26 1.522 1.522-.788 1.443 1.522 1.522-.813 1.443 1.338 1.339-.63.813 23.722 23.774a29.61 29.61 0 001.549.027c23.8 0 43.927-15.771 50.54-37.42z" fill="#000"/><path d="M26.162 71.507a.454.454 0 00-.078.367l.472 1.916h4.093a.498.498 0 110 .997h-3.883l.472 1.968h3.385c.263 0 .499.21.499.499 0 .288-.21.498-.499.498h-3.149l.473 1.968h2.676a.498.498 0 110 .997h-2.44l.131.604c.131.525.577.892 1.128.892h9.264c.524 0 .997-.367 1.128-.892L41.592 74a.487.487 0 01.525-.368L53.82 74.97a1.851 1.851 0 001.417-.446 1.79 1.79 0 00.604-1.364c0-.997-.814-1.81-1.81-1.81H26.502a.423.423 0 00-.34.157zm7.505-6.009c-1.994 0-4.093 3.122-5.038 4.854h10.313c-.604-1.286-2.598-4.854-5.275-4.854zM59.934 42.8l.578 4.513 4.513-.552c.079 0 .158 0 .236.027 1.181-1.601 2.126-3.15 2.467-4.724l-7.794.735z" fill="#fff"/><path d="M52.77 23.46a1.017 1.017 0 00-.682.393L34.77 46.29l.368.263a4.045 4.045 0 013.988.498l.21.158a.49.49 0 01.158.603l-.84 1.706 24.824 18.946a1.037 1.037 0 001.443-.184L81.61 46.63a1.037 1.037 0 00-.184-1.443L53.532 23.669a1.163 1.163 0 00-.761-.21zm-.97 26.687a.472.472 0 01-.394.183.505.505 0 01-.315-.105l-1.023-.84.079.735a.52.52 0 01-.447.551h-.052a.489.489 0 01-.499-.446l-.183-1.732-.788-.656-.708.866.157 1.575a.52.52 0 01-.446.55h-.052a.489.489 0 01-.499-.445l-.052-.604-.892 1.102a.472.472 0 01-.394.184.504.504 0 01-.315-.105c-.21-.184-.236-.472-.079-.709l.997-1.233-.865.079a.52.52 0 01-.552-.446.52.52 0 01.447-.551l1.837-.184.577-.708-1.024-.84-1.731.184h-.053a.489.489 0 01-.499-.447.52.52 0 01.447-.55l.734-.08-1.102-.918c-.21-.183-.236-.472-.079-.708.184-.21.473-.236.709-.079l1.076.892-.079-.708a.52.52 0 01.446-.551.52.52 0 01.551.446l.158 1.705 1.05.866.603-.734-.184-1.785a.52.52 0 01.446-.55.52.52 0 01.551.445l.08.788.865-1.05c.184-.21.472-.236.709-.079.21.184.236.473.078.709l-.787.97.656-.052a.52.52 0 01.551.446.52.52 0 01-.446.551l-1.627.158-.682.813.787.656 1.706-.157a.52.52 0 01.55.446.52.52 0 01-.445.55l-.709.08 1.023.84a.46.46 0 01.132.682zm22.488-6.85a.483.483 0 11.945-.21c.026.158.866 3.91-6.324 9.421-6.665 5.117-5.012 11.704-4.933 11.966a.486.486 0 01-.342.604c-.052 0-.078.026-.13.026a.504.504 0 01-.473-.367c-.026-.08-1.916-7.48 5.3-13.016 6.587-5.064 5.957-8.37 5.957-8.423zm-7.006-6.035a.507.507 0 01.682.184c2.52 4.54-.656 8.45-3.988 12.622-.473.603-.971 1.207-1.444 1.81-3.595 4.619-2.099 9.867-2.073 9.92a.486.486 0 01-.34.603c-.053.026-.106.026-.132.026a.474.474 0 01-.472-.367c-.08-.236-1.654-5.8 2.23-10.785.472-.63.971-1.233 1.443-1.837.446-.551.866-1.076 1.286-1.6L54.11 49.07l1.102 8.686c.026.262-.157.524-.42.55h-.052a.53.53 0 01-.499-.42l-1.154-9.184a.47.47 0 01.105-.367.448.448 0 01.34-.184l6.01-.708-.656-5.012a.47.47 0 01.105-.368.448.448 0 01.34-.183l8.555-.761c.053-1.05-.157-2.1-.76-3.175a.478.478 0 01.157-.683zm-11.94-6.849a.519.519 0 01.551.447l.21 2.125 1.68-2.047c.183-.21.472-.236.708-.078.21.183.236.472.079.708l-1.548 1.89 1.863-.184a.52.52 0 01.55.446.52.52 0 01-.445.55l-2.86.29-1.103 1.338 1.286 1.05 2.965-.29a.52.52 0 01.552.447.52.52 0 01-.447.55l-1.968.185 1.968 1.6c.21.184.237.473.08.709a.472.472 0 01-.395.184.504.504 0 01-.314-.105l-1.968-1.601.21 2.02a.52.52 0 01-.447.551h-.052a.489.489 0 01-.499-.446l-.288-2.991-1.286-1.05-1.155 1.391.263 2.755a.52.52 0 01-.446.551h-.053a.489.489 0 01-.498-.446l-.184-1.784-1.732 2.1a.472.472 0 01-.394.183.504.504 0 01-.315-.105c-.21-.184-.236-.473-.078-.709l1.915-2.335-2.204.21a.52.52 0 01-.551-.446.519.519 0 01.446-.551l3.201-.315.971-1.181-1.679-1.39-2.991.288h-.053a.489.489 0 01-.499-.446.52.52 0 01.447-.551l2.02-.21-1.443-1.181c-.21-.184-.236-.473-.079-.709.184-.21.472-.236.709-.078l1.39 1.154-.183-1.968a.52.52 0 01.446-.55.52.52 0 01.55.445l.29 2.965 1.731 1.417.971-1.18-.315-3.097a.474.474 0 01.42-.525zM29.18 60.118c-.079.945-.079 1.89-.026 2.86a.512.512 0 00.498.473h.027a.518.518 0 00.472-.525 18.898 18.898 0 01.026-2.73.494.494 0 00-.446-.524c-.289-.052-.525.158-.551.446zm5.09-11.861c-.13.131-3.516 3.254-4.723 9.263a.501.501 0 00.394.578h.105c.236 0 .446-.158.472-.394 1.129-5.668 4.383-8.712 4.409-8.738.21-.184.21-.499.026-.709a.491.491 0 00-.682 0zm-.865 12.281a.537.537 0 00-.473.525c.053.63.105 1.286.184 1.942a.489.489 0 00.499.446h.052c.263-.026.473-.289.42-.551-.079-.63-.131-1.26-.184-1.89a.46.46 0 00-.498-.472zm1.942-9.499a.476.476 0 00-.683.13c-.052.08-1.522 2.284-1.758 6.928-.026.263.184.5.473.525h.026c.262 0 .472-.21.498-.472.21-4.33 1.575-6.403 1.601-6.429a.505.505 0 00-.157-.682zm.314 5.143a15.88 15.88 0 001.444 6.98.485.485 0 00.446.289c.079 0 .131-.026.21-.053a.48.48 0 00.236-.656 14.632 14.632 0 01-1.365-6.534c0-.262-.21-.498-.472-.498-.288-.027-.498.183-.498.472zm.657-1.338a.53.53 0 00.498-.42c.263-1.627.709-2.624.709-2.624.105-.236 0-.551-.236-.656-.237-.105-.552 0-.657.236-.026.052-.524 1.128-.787 2.886a.464.464 0 00.42.551c0 .027.026.027.053.027z" fill="#fff"/></g><defs><linearGradient id="paint0_linear_44_1340" x1=".003" y1="-.566" x2="90.567" y2="89.11" gradientUnits="userSpaceOnUse"><stop stop-color="#FFB6F4"/><stop offset="1" stop-color="#F72C9A"/></linearGradient><clipPath id="clip0_44_1340"><path fill="#fff" d="M0 0h120v120H0z"/></clipPath></defs></svg>