<svg width="120" height="121" fill="none" xmlns="http://www.w3.org/2000/svg"><g clip-path="url(#clip0_44_1452)"><path d="M60.013 120.289c33.145 0 60.013-26.87 60.013-60.013C120.026 27.13 93.158.262 60.013.262 26.87.262 0 27.132 0 60.276c0 33.144 26.869 60.013 60.013 60.013z" fill="#fff"/><path d="M59.96 120.026c33.044 0 59.83-26.786 59.83-59.83C119.79 27.155 93.003.368 59.96.368 26.919.367.132 27.154.132 60.197s26.787 59.829 59.83 59.829z" fill="#FEFEFE"/><path d="M102.072 102.292c23.293-23.293 23.293-61.059 0-84.351-23.293-23.293-61.058-23.293-84.351 0s-23.293 61.058 0 84.351c23.293 23.292 61.058 23.292 84.351 0z" fill="#FDFDFD"/><path d="M59.856 119.528c32.84 0 59.462-26.622 59.462-59.462S92.696.604 59.856.604.394 27.226.394 60.066s26.622 59.462 59.462 59.462z" fill="#FCFCFC"/><path d="M59.803 119.265c32.739 0 59.279-26.54 59.279-59.278 0-32.739-26.54-59.279-59.279-59.279C27.065.708.525 27.248.525 59.987c0 32.738 26.54 59.278 59.278 59.278z" fill="#FBFBFB"/><path d="M101.535 101.69c23.078-23.077 23.078-60.494 0-83.571-23.078-23.078-60.494-23.078-83.572 0-23.078 23.077-23.078 60.494 0 83.571 23.078 23.078 60.494 23.078 83.572 0z" fill="#FAFAFA"/><path d="M101.35 101.484c23.006-23.006 23.006-60.306 0-83.312s-60.306-23.006-83.312 0-23.006 60.306 0 83.312 60.306 23.006 83.312 0z" fill="#F9F9F9"/><path d="M59.646 118.504c32.448 0 58.753-26.305 58.753-58.753 0-32.449-26.305-58.754-58.753-58.754C27.197.997.892 27.302.892 59.751c0 32.448 26.305 58.753 58.754 58.753z" fill="#F8F8F8"/><path d="M100.998 101.089c22.872-22.873 22.872-59.957 0-82.83-22.873-22.872-59.957-22.872-82.83 0-22.873 22.873-22.873 59.957 0 82.83 22.873 22.873 59.957 22.873 82.83 0z" fill="#F7F7F7"/><path d="M59.54 118.006c32.247 0 58.387-26.14 58.387-58.386S91.787 1.233 59.541 1.233 1.155 27.373 1.155 59.62c0 32.245 26.14 58.386 58.386 58.386z" fill="#F6F6F6"/><path d="M59.488 117.743c32.145 0 58.203-26.058 58.203-58.202 0-32.145-26.058-58.203-58.203-58.203-32.144 0-58.202 26.058-58.202 58.203 0 32.144 26.058 58.202 58.202 58.202z" fill="#F5F5F5"/><path d="M100.461 100.487c22.657-22.657 22.657-59.392 0-82.05-22.658-22.657-59.393-22.657-82.05 0-22.658 22.658-22.658 59.393 0 82.05 22.657 22.658 59.392 22.658 82.05 0z" fill="#F4F4F4"/><path d="M100.275 100.281c22.586-22.586 22.586-59.205 0-81.79-22.585-22.587-59.204-22.587-81.79 0-22.586 22.585-22.586 59.204 0 81.79 22.586 22.586 59.205 22.586 81.79 0z" fill="#F3F3F3"/><path d="M59.33 116.956c31.84 0 57.652-25.811 57.652-57.651 0-31.84-25.811-57.652-57.651-57.652-31.84 0-57.652 25.812-57.652 57.652s25.812 57.651 57.652 57.651z" fill="#F2F2F2"/><path d="M99.905 99.867c22.442-22.442 22.442-58.828 0-81.27-22.442-22.443-58.829-22.443-81.271 0-22.442 22.442-22.442 58.828 0 81.27 22.442 22.443 58.829 22.443 81.27 0z" fill="#F1F1F1"/><path d="M99.757 99.698c22.381-22.381 22.381-58.668 0-81.048-22.381-22.381-58.668-22.381-81.048 0-22.381 22.38-22.381 58.667 0 81.048 22.38 22.381 58.667 22.381 81.048 0z" fill="#F0F0F0"/><path d="M59.173 116.221c31.55 0 57.127-25.576 57.127-57.126 0-31.55-25.576-57.127-57.127-57.127-31.55 0-57.126 25.577-57.126 57.127s25.576 57.126 57.126 57.126z" fill="#EFEFEF"/><path d="M59.12 115.959c31.45 0 56.944-25.494 56.944-56.943 0-31.449-25.494-56.943-56.943-56.943-31.449 0-56.943 25.494-56.943 56.943 0 31.449 25.494 56.943 56.943 56.943z" fill="#EEE"/><path d="M99.201 99.078c22.166-22.166 22.166-58.103 0-80.269-22.165-22.166-58.103-22.166-80.269 0-22.165 22.166-22.165 58.103 0 80.269 22.166 22.166 58.103 22.166 80.27 0z" fill="#EDEDED"/><path d="M99.016 98.871c22.094-22.094 22.094-57.915 0-80.009s-57.915-22.094-80.01 0c-22.093 22.094-22.093 57.915 0 80.01 22.095 22.093 57.916 22.093 80.01 0z" fill="#ECECEC"/><path d="M58.963 115.172c31.145 0 56.392-25.248 56.392-56.392 0-31.144-25.247-56.392-56.392-56.392-31.144 0-56.391 25.248-56.391 56.392 0 31.144 25.247 56.392 56.391 56.392z" fill="#EBEBEB"/><path d="M58.91 114.936c31.044 0 56.209-25.166 56.209-56.209 0-31.043-25.165-56.208-56.208-56.208S2.703 27.684 2.703 58.727s25.165 56.209 56.208 56.209z" fill="#EAEAEA"/><path d="M98.479 98.27c21.879-21.879 21.879-57.351 0-79.23-21.879-21.879-57.351-21.879-79.23 0-21.879 21.879-21.879 57.351 0 79.23 21.879 21.879 57.351 21.879 79.23 0z" fill="#E9E9E9"/><path d="M58.806 114.437c30.855 0 55.867-25.013 55.867-55.867 0-30.855-25.013-55.867-55.867-55.867-30.854 0-55.867 25.012-55.867 55.867 0 30.854 25.012 55.867 55.867 55.867z" fill="#E8E8E8"/><path d="M58.754 114.175c30.753 0 55.683-24.93 55.683-55.684 0-30.753-24.93-55.683-55.683-55.683C28 2.808 3.07 27.738 3.07 58.49S28 114.175 58.754 114.175z" fill="#E7E7E7"/><path d="M97.96 97.65c21.674-21.674 21.674-56.814 0-78.488s-56.814-21.674-78.487 0c-21.674 21.674-21.674 56.814 0 78.488 21.673 21.674 56.813 21.674 78.487 0z" fill="#E6E6E6"/><path d="M97.793 97.462c21.602-21.602 21.602-56.626 0-78.228-21.602-21.602-56.625-21.602-78.227 0-21.602 21.602-21.602 56.626 0 78.228 21.602 21.602 56.625 21.602 78.227 0z" fill="#E5E5E5"/><path d="M58.622 113.414c30.449 0 55.133-24.684 55.133-55.133 0-30.448-24.684-55.132-55.133-55.132C28.174 3.149 3.49 27.832 3.49 58.28c0 30.449 24.684 55.133 55.132 55.133z" fill="#E4E4E4"/><path d="M58.57 113.151c30.347 0 54.948-24.601 54.948-54.948 0-30.348-24.6-54.95-54.948-54.95S3.62 27.856 3.62 58.204c0 30.347 24.602 54.948 54.949 54.948z" fill="#E3E3E3"/><path d="M97.238 96.842c21.387-21.387 21.387-56.062 0-77.449s-56.062-21.387-77.449 0-21.387 56.062 0 77.449 56.062 21.387 77.449 0z" fill="#E2E2E2"/><path d="M97.053 96.635c21.315-21.315 21.315-55.874 0-77.189-21.316-21.315-55.874-21.315-77.19 0-21.314 21.315-21.314 55.874 0 77.189 21.316 21.315 55.874 21.315 77.19 0z" fill="#E1E1E1"/><path d="M58.412 112.39c30.058 0 54.424-24.366 54.424-54.424 0-30.057-24.366-54.423-54.424-54.423-30.057 0-54.423 24.366-54.423 54.423 0 30.058 24.366 54.424 54.423 54.424z" fill="#E0E0E0"/><path d="M96.72 96.259c21.181-21.182 21.181-55.525 0-76.706-21.183-21.182-55.525-21.182-76.707 0-21.182 21.181-21.182 55.524 0 76.706 21.182 21.182 55.524 21.182 76.706 0z" fill="#DFDFDF"/><path d="M96.534 96.052c21.11-21.11 21.11-55.336 0-76.446s-55.336-21.11-76.447 0c-21.11 21.11-21.11 55.336 0 76.446s55.337 21.11 76.447 0z" fill="#DEDEDE"/><path d="M58.255 111.629c29.753 0 53.873-24.12 53.873-53.873 0-29.753-24.12-53.872-53.873-53.872-29.753 0-53.873 24.12-53.873 53.873 0 29.753 24.12 53.872 53.873 53.872z" fill="#DDD"/><path d="M58.203 111.367c29.651 0 53.689-24.038 53.689-53.69 0-29.65-24.038-53.688-53.69-53.688-29.651 0-53.689 24.037-53.689 53.689 0 29.651 24.038 53.689 53.69 53.689z" fill="#DCDCDC"/><path d="M95.978 95.432c20.895-20.895 20.895-54.772 0-75.667-20.895-20.895-54.772-20.895-75.667 0-20.895 20.895-20.895 54.772 0 75.667 20.895 20.895 54.772 20.895 75.667 0z" fill="#DBDBDB"/><path d="M95.793 95.226c20.823-20.824 20.823-54.585 0-75.408s-54.584-20.823-75.407 0c-20.824 20.823-20.824 54.584 0 75.408 20.823 20.823 54.584 20.823 75.407 0z" fill="#DADADA"/><path d="M58.045 110.606c29.347 0 53.138-23.79 53.138-53.138S87.393 4.33 58.045 4.33c-29.347 0-53.138 23.79-53.138 53.138 0 29.347 23.79 53.138 53.138 53.138z" fill="#D9D9D9"/><path d="M57.992 110.37c29.26 0 52.981-23.72 52.981-52.98 0-29.261-23.72-52.981-52.98-52.981-29.26 0-52.981 23.72-52.981 52.98 0 29.26 23.72 52.981 52.98 52.981z" fill="#D8D8D8"/><path d="M95.275 94.643c20.618-20.618 20.618-54.047 0-74.666C74.656-.64 41.227-.64 20.609 19.977c-20.618 20.619-20.618 54.047 0 74.666 20.618 20.618 54.047 20.618 74.666 0z" fill="#D7D7D7"/><path d="M95.09 94.436c20.546-20.547 20.546-53.859 0-74.406-20.547-20.546-53.86-20.546-74.406 0-20.547 20.547-20.547 53.86 0 74.406 20.546 20.547 53.859 20.547 74.405 0z" fill="#D6D6D6"/><path d="M57.835 109.582c28.956 0 52.43-23.473 52.43-52.43 0-28.955-23.474-52.429-52.43-52.429s-52.43 23.474-52.43 52.43 23.474 52.429 52.43 52.429z" fill="#D5D5D5"/><path d="M94.719 94.023c20.403-20.403 20.403-53.483 0-73.886s-53.483-20.403-73.886 0-20.403 53.483 0 73.886 53.483 20.403 73.886 0z" fill="#D4D4D4"/><path d="M94.552 93.835c20.331-20.332 20.331-53.295 0-73.627-20.331-20.33-53.295-20.33-73.626 0C.595 40.54.595 73.503 20.926 93.835c20.331 20.331 53.295 20.331 73.626 0z" fill="#D3D3D3"/><path d="M57.678 108.821c28.651 0 51.878-23.226 51.878-51.878S86.329 5.065 57.678 5.065c-28.652 0-51.879 23.226-51.879 51.878s23.227 51.878 51.879 51.878z" fill="#D2D2D2"/><path d="M57.625 108.559c28.55 0 51.695-23.144 51.695-51.695 0-28.55-23.145-51.694-51.695-51.694S5.93 28.314 5.93 56.864c0 28.55 23.145 51.695 51.695 51.695z" fill="#D2D2D2"/><path d="M94.015 93.233c20.126-20.126 20.126-52.758 0-72.884C73.89.223 41.257.223 21.131 20.35c-20.126 20.126-20.126 52.758 0 72.884 20.127 20.127 52.758 20.127 72.884 0z" fill="#D1D1D1"/><path d="M93.83 93.027c20.054-20.055 20.054-52.57 0-72.625C73.775.348 41.26.348 21.206 20.402c-20.055 20.055-20.055 52.57 0 72.625 20.054 20.054 52.57 20.054 72.624 0z" fill="#D0D0D0"/><path d="M57.468 107.798c28.26 0 51.17-22.91 51.17-51.17s-22.91-51.17-51.17-51.17-51.17 22.91-51.17 51.17 22.91 51.17 51.17 51.17z" fill="#CFCFCF"/><path d="M57.415 107.562c28.16 0 50.986-22.828 50.986-50.986 0-28.16-22.827-50.987-50.986-50.987C29.256 5.59 6.43 28.417 6.43 56.576c0 28.158 22.827 50.986 50.986 50.986z" fill="#CECECE"/><path d="M93.293 92.425c19.839-19.84 19.839-52.005 0-71.845C73.453.74 41.287.74 21.448 20.58c-19.84 19.84-19.84 52.006 0 71.845 19.84 19.84 52.005 19.84 71.845 0z" fill="#CDCDCD"/><path d="M57.31 107.037c27.956 0 50.619-22.663 50.619-50.619S85.266 5.8 57.31 5.8 6.691 28.462 6.691 56.42c0 27.955 22.663 50.618 50.62 50.618z" fill="#CCC"/><path d="M57.258 106.775c27.854 0 50.435-22.581 50.435-50.436 0-27.854-22.58-50.435-50.435-50.435-27.855 0-50.435 22.58-50.435 50.436 0 27.854 22.58 50.435 50.435 50.435z" fill="#CBCBCB"/><path d="M92.756 91.787c19.624-19.625 19.624-51.442 0-71.066-19.625-19.624-51.442-19.624-71.066 0-19.624 19.624-19.624 51.441 0 71.066 19.624 19.624 51.441 19.624 71.066 0z" fill="#CACACA"/><path d="M92.589 91.599c19.563-19.563 19.563-51.28 0-70.844-19.563-19.562-51.28-19.562-70.843 0-19.563 19.563-19.563 51.28 0 70.844 19.563 19.562 51.28 19.562 70.843 0z" fill="#C9C9C9"/><path d="M57.127 106.04c27.564 0 49.91-22.346 49.91-49.91 0-27.565-22.346-49.91-49.91-49.91-27.565 0-49.91 22.345-49.91 49.91 0 27.564 22.345 49.91 49.91 49.91z" fill="#C8C8C8"/><path d="M57.074 105.778c27.463 0 49.727-22.264 49.727-49.727 0-27.463-22.264-49.727-49.727-49.727-27.463 0-49.727 22.264-49.727 49.727 0 27.463 22.264 49.727 49.727 49.727z" fill="#C7C7C7"/><path d="M92.052 90.997c19.347-19.347 19.347-50.716 0-70.064-19.348-19.347-50.716-19.347-70.064 0-19.347 19.348-19.347 50.717 0 70.064 19.348 19.348 50.716 19.348 70.064 0z" fill="#C6C6C6"/><path d="M56.97 105.253c27.26 0 49.358-22.1 49.358-49.36 0-27.26-22.099-49.359-49.359-49.359S7.61 28.633 7.61 55.894c0 27.26 22.1 49.359 49.36 49.359z" fill="#C5C5C5"/><path d="M91.681 90.584c19.204-19.204 19.204-50.34 0-69.544-19.204-19.204-50.34-19.204-69.544 0-19.204 19.204-19.204 50.34 0 69.544 19.204 19.204 50.34 19.204 69.544 0z" fill="#C4C4C4"/><path d="M91.496 90.377c19.132-19.132 19.132-50.152 0-69.284-19.132-19.133-50.152-19.133-69.284 0-19.133 19.132-19.133 50.152 0 69.284 19.132 19.132 50.152 19.132 69.284 0z" fill="#C3C3C3"/><path d="M56.812 104.492c26.956 0 48.808-21.853 48.808-48.809 0-26.956-21.852-48.808-48.808-48.808S8.003 28.727 8.003 55.684c0 26.956 21.853 48.808 48.809 48.808z" fill="#C2C2C2"/><path d="M91.163 90c18.999-18.998 18.999-49.802 0-68.801-19-19-49.803-19-68.802 0-19 19-19 49.803 0 68.802C41.36 109 72.164 109 91.163 90z" fill="#C1C1C1"/><path d="M90.978 89.794c18.927-18.927 18.927-49.614 0-68.542-18.928-18.927-49.615-18.927-68.543 0-18.927 18.927-18.927 49.615 0 68.542 18.928 18.928 49.615 18.928 68.543 0z" fill="silver"/><path d="M56.654 103.731c26.666 0 48.284-21.618 48.284-48.284S83.32 7.164 56.654 7.164 8.371 28.78 8.371 55.447s21.617 48.284 48.283 48.284z" fill="#BFBFBF"/><path d="M56.602 103.468c26.565 0 48.099-21.535 48.099-48.1 0-26.564-21.534-48.1-48.1-48.1-26.564 0-48.099 21.536-48.099 48.1 0 26.565 21.535 48.1 48.1 48.1z" fill="#BEBEBE"/><path d="M90.422 89.174c18.712-18.712 18.712-49.05 0-67.763C71.71 2.7 41.372 2.7 22.659 21.411c-18.712 18.713-18.712 49.051 0 67.763 18.712 18.712 49.05 18.712 67.763 0z" fill="#BDBDBD"/><path d="M90.255 88.986c18.641-18.64 18.641-48.863 0-67.503-18.64-18.64-48.862-18.64-67.503 0-18.64 18.64-18.64 48.863 0 67.503 18.64 18.641 48.863 18.641 67.503 0z" fill="#BCBCBC"/><path d="M56.444 102.707c26.26 0 47.549-21.288 47.549-47.548S82.705 7.61 56.444 7.61c-26.26 0-47.548 21.288-47.548 47.549 0 26.26 21.288 47.548 47.548 47.548z" fill="#BBB"/><path d="M56.392 102.445c26.159 0 47.365-21.206 47.365-47.365 0-26.159-21.206-47.365-47.365-47.365-26.16 0-47.365 21.206-47.365 47.365 0 26.159 21.206 47.365 47.365 47.365z" fill="#BABABA"/><path d="M89.718 88.385c18.436-18.436 18.436-48.326 0-66.761-18.435-18.436-48.325-18.436-66.76 0-18.436 18.435-18.436 48.325 0 66.76 18.435 18.436 48.325 18.436 66.76 0z" fill="#B9B9B9"/><path d="M56.287 101.946c25.97 0 47.024-21.053 47.024-47.024 0-25.97-21.054-47.023-47.024-47.023-25.97 0-47.024 21.053-47.024 47.023 0 25.97 21.053 47.024 47.024 47.024z" fill="#B8B8B8"/><path d="M56.234 101.684c25.87 0 46.841-20.971 46.841-46.84 0-25.87-20.972-46.84-46.84-46.84-25.87 0-46.84 20.97-46.84 46.84 0 25.869 20.97 46.84 46.84 46.84z" fill="#B7B7B7"/><path d="M89.181 87.783c18.22-18.22 18.22-47.761 0-65.981-18.22-18.22-47.761-18.22-65.982 0-18.22 18.22-18.22 47.761 0 65.981 18.22 18.221 47.762 18.221 65.982 0z" fill="#B6B6B6"/><path d="M88.996 87.577c18.148-18.149 18.148-47.573 0-65.722-18.149-18.149-47.573-18.149-65.722 0-18.149 18.149-18.149 47.573 0 65.722 18.148 18.148 47.573 18.148 65.722 0z" fill="#B5B5B5"/><path d="M56.077 100.923c25.565 0 46.289-20.724 46.289-46.29 0-25.564-20.724-46.288-46.29-46.288-25.564 0-46.288 20.724-46.288 46.289s20.724 46.289 46.289 46.289z" fill="#B4B4B4"/><path d="M56.025 100.661c25.463 0 46.105-20.643 46.105-46.106S81.488 8.45 56.025 8.45C30.56 8.45 9.919 29.092 9.919 54.555c0 25.463 20.642 46.106 46.106 46.106z" fill="#B3B3B3"/><path d="M88.44 86.957c17.933-17.934 17.933-47.01 0-64.943s-47.01-17.933-64.942 0c-17.934 17.933-17.934 47.01 0 64.943 17.933 17.933 47.009 17.933 64.942 0z" fill="#B2B2B2"/><path d="M88.273 86.769c17.872-17.872 17.872-46.848 0-64.72-17.871-17.872-46.848-17.872-64.72 0-17.871 17.872-17.871 46.848 0 64.72 17.872 17.871 46.849 17.871 64.72 0z" fill="#B1B1B1"/><path d="M55.867 99.926c25.173 0 45.581-20.407 45.581-45.58 0-25.174-20.407-45.581-45.581-45.581-25.173 0-45.58 20.407-45.58 45.58 0 25.174 20.407 45.58 45.58 45.58z" fill="#B0B0B0"/><path d="M55.815 99.663c25.072 0 45.396-20.325 45.396-45.397S80.887 8.87 55.815 8.87 10.418 29.194 10.418 54.266s20.325 45.397 45.397 45.397z" fill="#AFAFAF"/><path d="M87.755 86.149c17.657-17.657 17.657-46.284 0-63.94-17.657-17.658-46.284-17.658-63.94 0-17.657 17.656-17.657 46.283 0 63.94 17.656 17.656 46.283 17.656 63.94 0z" fill="#AEAEAE"/><path d="M55.736 99.138c24.869 0 45.029-20.16 45.029-45.029 0-24.87-20.16-45.03-45.03-45.03-24.868 0-45.029 20.16-45.029 45.03s20.16 45.03 45.03 45.03z" fill="#ADADAD"/><path d="M55.683 98.876c24.768 0 44.846-20.078 44.846-44.846 0-24.767-20.078-44.846-44.846-44.846-24.767 0-44.846 20.079-44.846 44.846 0 24.768 20.079 44.846 44.846 44.846z" fill="#ACACAC"/><path d="M87.2 85.529c17.441-17.442 17.441-45.72 0-63.162-17.442-17.441-45.72-17.441-63.162 0-17.442 17.442-17.442 45.72 0 63.162 17.441 17.441 45.72 17.441 63.161 0z" fill="#ABABAB"/><path d="M87.032 85.34c17.37-17.37 17.37-45.531 0-62.9-17.37-17.37-45.531-17.37-62.901 0-17.37 17.369-17.37 45.53 0 62.9 17.37 17.37 45.532 17.37 62.901 0z" fill="#AAA"/><path d="M55.526 98.141c24.478 0 44.32-19.843 44.32-44.32 0-24.478-19.842-44.322-44.32-44.322S11.205 29.342 11.205 53.82c0 24.478 19.843 44.321 44.32 44.321z" fill="#A9A9A9"/><path d="M55.473 97.879c24.377 0 44.138-19.761 44.138-44.137 0-24.377-19.761-44.138-44.138-44.138-24.376 0-44.137 19.761-44.137 44.138 0 24.376 19.761 44.137 44.137 44.137z" fill="#A8A8A8"/><path d="M86.495 84.739c17.165-17.165 17.165-44.994 0-62.16-17.165-17.164-44.994-17.164-62.159 0-17.165 17.166-17.165 44.995 0 62.16s44.995 17.165 62.16 0z" fill="#A7A7A7"/><path d="M86.31 84.532c17.093-17.093 17.093-44.806 0-61.9-17.093-17.092-44.806-17.092-61.9 0-17.092 17.094-17.092 44.807 0 61.9 17.094 17.093 44.807 17.093 61.9 0z" fill="#A6A6A6"/><path d="M55.316 97.092c24.072 0 43.586-19.514 43.586-43.587 0-24.072-19.514-43.586-43.586-43.586S11.73 29.433 11.73 53.506c0 24.072 19.514 43.586 43.586 43.586z" fill="#A5A5A5"/><path d="M85.958 84.138c16.95-16.95 16.95-44.43 0-61.38-16.95-16.95-44.43-16.95-61.38 0-16.95 16.95-16.95 44.43 0 61.38 16.95 16.949 44.43 16.949 61.38 0z" fill="#A4A4A4"/><path d="M53.846 105.699c29.188 0 52.85-23.662 52.85-52.85C106.696 23.661 83.034 0 53.846 0 24.66 0 .998 23.661.998 52.85c0 29.187 23.662 52.849 52.85 52.849z" fill="url(#paint0_linear_44_1452)"/><path opacity=".2" d="M60.013 105.331c25.375-2.965 45.266-23.879 46.604-49.726l-31.07-31.07-2.86 2.73 5.17 5.195-1.207 4.12-8.896-8.108s-26.45.498-26.608.498c-.158 0-3.7 3.018-3.7 3.018l-.394 4.041-4.88-4.855-4.147 4.251 5.065 5.065-.892 4.093 4.513 4.566-3.464 8.502-1.574-1.574-6.56 5.826.63 2.676 11.52 11.52-4.75 1.732 27.5 27.5z" fill="#000"/><path d="M38.023 75.338h-4.46a1.495 1.495 0 100 2.992h4.46c.814 0 1.496-.657 1.496-1.496 0-.84-.656-1.496-1.496-1.496zm-7.898-39.047a2.965 2.965 0 100-5.93 2.965 2.965 0 000 5.93zm44.478 8.056v-2.204c0-2.676-2.178-4.88-4.854-4.88H40.017a.498.498 0 01-.498-.5v-3.568c0-.761.603-1.365 1.364-1.365h25.375c1.496-.026 2.047-1.207 2.047-1.941 0-1.024-.708-2.021-1.994-2.021H41.04c-2.94.236-5.196 2.677-4.986 5.432v3.543a.53.53 0 01-.42.498c-2.073.341-3.542 1.968-3.542 3.962v3.044c0 .184.157.341.34.341h41.829a.347.347 0 00.341-.34zm-13.33-5.09h-3.464a.498.498 0 110-.997h3.464c.262 0 .498.21.498.498a.516.516 0 01-.498.499zM72.95 42.72a.498.498 0 01-.499-.498 2.98 2.98 0 00-2.965-2.965h-5.747a.498.498 0 110-.997h5.747a3.976 3.976 0 013.962 3.962c-.026.262-.236.498-.498.498zm3.149 27.186h-4.461a1.495 1.495 0 100 2.992h4.46c.814 0 1.496-.656 1.496-1.496-.026-.84-.682-1.496-1.495-1.496z" fill="#fff"/><path d="M77.568 56.05h-2.545c1.076 1.733 2.493 3.622 4.33 5.59a.482.482 0 01.105.525.485.485 0 01-.446.289H27.71a.46.46 0 01-.446-.29c-.078-.183-.052-.393.105-.524 1.837-1.968 3.254-3.857 4.33-5.59h-2.572c-2.729 0-4.933 2.231-4.933 4.934a4.928 4.928 0 004.934 4.933h20.52a3.197 3.197 0 013.201 3.202 3.197 3.197 0 01-3.201 3.201h-.499a4.692 4.692 0 00-4.697 4.697c0 2.598 2.1 4.698 4.697 4.698h22.253a2.23 2.23 0 002.23-2.231c0-1.233-.997-2.23-2.23-2.23h-1.968a2.727 2.727 0 01-2.73-2.73c0-1.233-.997-2.23-2.23-2.23h-1.496a3.197 3.197 0 01-3.201-3.201 3.197 3.197 0 013.201-3.202h14.59c2.73 0 4.934-2.23 4.934-4.933.026-2.677-2.205-4.907-4.934-4.907zM52.85 80.77h-3.201a3.976 3.976 0 01-3.963-3.963.498.498 0 11.998 0 2.98 2.98 0 002.965 2.966h3.201c.263 0 .499.21.499.498 0 .289-.21.499-.499.499zm4.461 0h-1.968a.498.498 0 110-.997h1.968a.498.498 0 110 .997z" fill="#fff"/><path d="M32.932 55.92c-1.023 1.731-2.361 3.595-4.12 5.563h7.322c2.703-3.674 3.49-9.447 3.673-11.153a.503.503 0 01.552-.446.503.503 0 01.446.551c-.184 1.68-.919 7.19-3.438 11.048h7.321c0-.079 0-.158.053-.236 1.207-2.336 1.417-7.637 1.417-7.689 0-.263.236-.499.525-.472.262 0 .498.236.472.524 0 .21-.21 5.275-1.417 7.899h7.164v-8.896a.498.498 0 11.997 0v8.896h7.059c-1.207-2.624-1.417-7.662-1.417-7.899 0-.262.21-.498.472-.524.289-.027.499.21.525.472 0 .052.21 5.353 1.417 7.689a.764.764 0 01.052.236h8.056c-2.519-3.858-3.28-9.368-3.437-11.048a.5.5 0 01.446-.55.5.5 0 01.551.445c.184 1.706.97 7.479 3.674 11.153h6.665c-6.928-7.82-7.4-14.065-7.374-15.824H36.186c.026 1.313-.236 5.039-3.122 10.025-.027.104-.053.183-.132.236zM79.04 37.223a2.965 2.965 0 10-.95-5.854 2.965 2.965 0 00.95 5.854zm-4.935-9.355a1.968 1.968 0 100-3.936 1.968 1.968 0 000 3.936z" fill="#fff"/></g><defs><linearGradient id="paint0_linear_44_1452" x1="-7.482" y1="5.052" x2="83.237" y2="75.742" gradientUnits="userSpaceOnUse"><stop stop-color="#FFB6F4"/><stop offset="1" stop-color="#F72C9A"/></linearGradient><clipPath id="clip0_44_1452"><path fill="#fff" d="M0 0h120v120.289H0z"/></clipPath></defs></svg>