<svg width="120" height="120" fill="none" xmlns="http://www.w3.org/2000/svg"><g clip-path="url(#clip0_44_1785)"><path d="M60.013 120.026c33.145 0 60.013-26.868 60.013-60.013C120.026 26.87 93.158 0 60.013 0 26.87 0 0 26.869 0 60.013c0 33.145 26.869 60.013 60.013 60.013z" fill="#fff"/><path d="M59.96 119.764c33.044 0 59.83-26.787 59.83-59.83C119.79 26.892 93.003.105 59.96.105 26.919.105.132 26.892.132 59.935c0 33.042 26.787 59.829 59.83 59.829z" fill="#FEFEFE"/><path d="M102.081 102.025c23.293-23.293 23.293-61.058 0-84.35-23.293-23.294-61.058-23.294-84.35 0-23.294 23.292-23.294 61.057 0 84.35 23.292 23.293 61.057 23.293 84.35 0z" fill="#FDFDFD"/><path d="M101.896 101.819c23.221-23.222 23.221-60.87 0-84.091-23.221-23.222-60.87-23.222-84.091 0-23.221 23.22-23.221 60.87 0 84.091 23.22 23.221 60.87 23.221 84.091 0z" fill="#FCFCFC"/><path d="M59.803 118.977c32.739 0 59.279-26.54 59.279-59.279C119.082 26.96 92.542.42 59.803.42 27.065.42.525 26.96.525 59.698c0 32.739 26.54 59.279 59.278 59.279z" fill="#FBFBFB"/><path d="M59.75 118.714c32.638 0 59.095-26.457 59.095-59.094 0-32.638-26.457-59.095-59.094-59.095S.656 26.982.656 59.62c0 32.637 26.458 59.094 59.095 59.094z" fill="#FAFAFA"/><path d="M101.359 101.217c23.006-23.006 23.006-60.306 0-83.312s-60.306-23.006-83.312 0-23.006 60.306 0 83.312 60.306 23.006 83.312 0z" fill="#F9F9F9"/><path d="M59.646 118.242c32.448 0 58.753-26.305 58.753-58.754C118.399 27.04 92.094.735 59.646.735 27.197.735.892 27.04.892 59.488c0 32.449 26.305 58.754 58.754 58.754z" fill="#F8F8F8"/><path d="M59.593 117.979c32.348 0 58.57-26.222 58.57-58.57 0-32.347-26.222-58.57-58.57-58.57-32.347 0-58.57 26.223-58.57 58.57 0 32.348 26.223 58.57 58.57 58.57z" fill="#F7F7F7"/><path d="M100.822 100.616c22.801-22.801 22.801-59.769 0-82.57-22.801-22.8-59.769-22.8-82.57 0-22.801 22.801-22.801 59.769 0 82.57 22.801 22.801 59.769 22.801 82.57 0z" fill="#F6F6F6"/><path d="M100.636 100.409c22.73-22.729 22.73-59.58 0-82.31-22.729-22.729-59.58-22.729-82.31 0-22.729 22.73-22.729 59.581 0 82.31 22.73 22.73 59.581 22.73 82.31 0z" fill="#F5F5F5"/><path d="M59.436 117.192c32.043 0 58.019-25.976 58.019-58.018 0-32.043-25.976-58.02-58.02-58.02-32.042 0-58.018 25.977-58.018 58.02 0 32.042 25.976 58.018 58.019 58.018z" fill="#F4F4F4"/><path d="M59.383 116.956c31.942 0 57.835-25.894 57.835-57.835 0-31.942-25.893-57.835-57.835-57.835-31.941 0-57.835 25.893-57.835 57.835 0 31.941 25.894 57.835 57.835 57.835z" fill="#F3F3F3"/><path d="M100.099 99.808c22.514-22.514 22.514-59.017 0-81.53-22.514-22.515-59.016-22.515-81.53 0-22.514 22.513-22.514 59.016 0 81.53 22.514 22.514 59.016 22.514 81.53 0z" fill="#F2F2F2"/><path d="M99.914 99.601c22.443-22.442 22.443-58.828 0-81.27-22.442-22.443-58.828-22.443-81.27 0C-3.8 40.772-3.8 77.158 18.643 99.6c22.442 22.443 58.828 22.443 81.27 0z" fill="#F1F1F1"/><path d="M59.226 116.195c31.651 0 57.31-25.659 57.31-57.31 0-31.652-25.659-57.31-57.31-57.31-31.652 0-57.31 25.658-57.31 57.31 0 31.651 25.658 57.31 57.31 57.31z" fill="#F0F0F0"/><path d="M99.562 99.207c22.309-22.31 22.309-58.48 0-80.789-22.309-22.31-58.48-22.31-80.788 0-22.31 22.31-22.31 58.48 0 80.788 22.309 22.31 58.48 22.31 80.788 0z" fill="#EFEFEF"/><path d="M99.377 99c22.237-22.238 22.237-58.292 0-80.529-22.237-22.237-58.291-22.237-80.529 0-22.237 22.237-22.237 58.291 0 80.529 22.238 22.237 58.292 22.237 80.529 0z" fill="#EEE"/><path d="M59.068 115.434c31.348 0 56.76-25.412 56.76-56.76 0-31.346-25.412-56.758-56.76-56.758-31.347 0-56.759 25.412-56.759 56.759s25.412 56.759 56.76 56.759z" fill="#EDEDED"/><path d="M99.025 98.605c22.094-22.094 22.094-57.915 0-80.01-22.094-22.093-57.915-22.093-80.01 0-22.093 22.095-22.093 57.916 0 80.01 22.095 22.094 57.916 22.094 80.01 0z" fill="#ECECEC"/><path d="M98.84 98.398c22.022-22.022 22.022-57.727 0-79.749s-57.727-22.022-79.75 0c-22.022 22.022-22.022 57.727 0 79.75 22.023 22.022 57.728 22.022 79.75 0z" fill="#EBEBEB"/><path d="M58.911 114.647c31.043 0 56.208-25.165 56.208-56.208S89.954 2.23 58.911 2.23 2.703 27.396 2.703 58.44c0 31.043 25.165 56.208 56.208 56.208z" fill="#EAEAEA"/><path d="M98.47 97.985c21.878-21.879 21.878-57.351 0-79.23-21.88-21.879-57.352-21.879-79.23 0-21.88 21.879-21.88 57.351 0 79.23 21.878 21.879 57.35 21.879 79.23 0z" fill="#E9E9E9"/><path d="M98.321 97.816c21.818-21.818 21.818-57.19 0-79.008-21.817-21.817-57.19-21.817-79.007 0-21.817 21.818-21.817 57.19 0 79.007 21.817 21.818 57.19 21.818 79.007 0z" fill="#E8E8E8"/><path d="M58.754 113.912c30.753 0 55.683-24.93 55.683-55.683S89.507 2.545 58.754 2.545 3.07 27.475 3.07 58.23c0 30.753 24.93 55.683 55.684 55.683z" fill="#E7E7E7"/><path d="M58.727 113.65c30.652 0 55.5-24.848 55.5-55.5s-24.848-55.5-55.5-55.5c-30.651 0-55.5 24.848-55.5 55.5s24.849 55.5 55.5 55.5z" fill="#E6E6E6"/><path d="M97.784 97.177c21.602-21.602 21.602-56.626 0-78.228-21.602-21.602-56.626-21.602-78.228 0-21.602 21.602-21.602 56.626 0 78.228 21.602 21.602 56.626 21.602 78.228 0z" fill="#E5E5E5"/><path d="M97.599 96.97c21.53-21.53 21.53-56.438 0-77.968s-56.438-21.53-77.968 0-21.53 56.438 0 77.968c21.53 21.531 56.438 21.531 77.968 0z" fill="#E4E4E4"/><path d="M58.57 112.862c30.347 0 54.948-24.6 54.948-54.948S88.918 2.965 58.57 2.965c-30.347 0-54.95 24.602-54.95 54.949 0 30.347 24.602 54.948 54.949 54.948z" fill="#E3E3E3"/><path d="M97.247 96.576c21.387-21.387 21.387-56.062 0-77.449s-56.062-21.387-77.448 0c-21.387 21.387-21.387 56.062 0 77.449 21.386 21.386 56.061 21.386 77.448 0z" fill="#E2E2E2"/><path d="M97.062 96.369c21.315-21.315 21.315-55.874 0-77.189-21.315-21.315-55.874-21.315-77.189 0-21.315 21.315-21.315 55.874 0 77.189 21.315 21.315 55.874 21.315 77.189 0z" fill="#E1E1E1"/><path d="M58.412 112.128c30.058 0 54.424-24.367 54.424-54.424 0-30.058-24.366-54.424-54.424-54.424C28.355 3.28 3.99 27.646 3.99 57.704c0 30.057 24.366 54.424 54.423 54.424z" fill="#E0E0E0"/><path d="M58.36 111.865c29.956 0 54.24-24.284 54.24-54.24 0-29.956-24.284-54.24-54.24-54.24-29.956 0-54.24 24.284-54.24 54.24 0 29.956 24.284 54.24 54.24 54.24z" fill="#DFDFDF"/><path d="M96.525 95.767c21.11-21.11 21.11-55.336 0-76.446s-55.337-21.11-76.447 0-21.11 55.336 0 76.446c21.11 21.111 55.337 21.111 76.447 0z" fill="#DEDEDE"/><path d="M96.34 95.56c21.038-21.038 21.038-55.148 0-76.186-21.039-21.038-55.149-21.038-76.187 0-21.039 21.038-21.039 55.148 0 76.187 21.038 21.038 55.148 21.038 76.186 0z" fill="#DDD"/><path d="M58.203 111.104c29.651 0 53.689-24.037 53.689-53.689 0-29.651-24.038-53.689-53.69-53.689-29.651 0-53.689 24.038-53.689 53.69 0 29.65 24.038 53.688 53.69 53.688z" fill="#DCDCDC"/><path d="M95.987 95.166c20.895-20.895 20.895-54.772 0-75.667-20.894-20.895-54.772-20.895-75.667 0-20.895 20.895-20.895 54.772 0 75.667 20.895 20.895 54.773 20.895 75.667 0z" fill="#DBDBDB"/><path d="M95.802 94.96c20.824-20.824 20.824-54.585 0-75.408-20.823-20.823-54.584-20.823-75.407 0-20.823 20.823-20.823 54.584 0 75.407 20.823 20.824 54.584 20.824 75.407 0z" fill="#DADADA"/><path d="M58.045 110.317c29.347 0 53.138-23.79 53.138-53.138 0-29.347-23.79-53.138-53.138-53.138-29.347 0-53.138 23.79-53.138 53.138 0 29.347 23.79 53.138 53.138 53.138z" fill="#D9D9D9"/><path d="M57.993 110.081c29.26 0 52.98-23.72 52.98-52.98 0-29.26-23.72-52.981-52.98-52.981-29.26 0-52.981 23.72-52.981 52.98 0 29.26 23.72 52.981 52.98 52.981z" fill="#D8D8D8"/><path d="M95.265 94.358c20.618-20.618 20.618-54.047 0-74.665C74.647-.926 41.218-.926 20.6 19.693-.018 40.31-.018 73.74 20.6 94.358c20.618 20.618 54.047 20.618 74.665 0z" fill="#D7D7D7"/><path d="M95.099 94.17c20.546-20.547 20.546-53.86 0-74.406-20.547-20.546-53.86-20.546-74.406 0-20.547 20.547-20.547 53.86 0 74.406 20.546 20.546 53.859 20.546 74.406 0z" fill="#D6D6D6"/><path d="M57.835 109.32c28.956 0 52.43-23.474 52.43-52.43S86.791 4.46 57.835 4.46 5.405 27.935 5.405 56.89s23.474 52.43 52.43 52.43z" fill="#D5D5D5"/><path d="M57.783 109.058c28.854 0 52.245-23.392 52.245-52.246 0-28.855-23.39-52.246-52.245-52.246-28.855 0-52.246 23.391-52.246 52.246 0 28.854 23.391 52.246 52.246 52.246z" fill="#D4D4D4"/><path d="M94.543 93.55c20.331-20.331 20.331-53.295 0-73.626-20.332-20.332-53.295-20.332-73.626 0-20.332 20.33-20.332 53.295 0 73.626 20.331 20.331 53.294 20.331 73.626 0z" fill="#D3D3D3"/><path d="M94.358 93.343c20.259-20.26 20.259-53.107 0-73.366-20.26-20.26-53.107-20.26-73.367 0-20.26 20.26-20.26 53.107 0 73.366 20.26 20.26 53.107 20.26 73.367 0z" fill="#D2D2D2"/><path d="M57.625 108.27c28.55 0 51.695-23.144 51.695-51.694 0-28.55-23.145-51.695-51.695-51.695S5.93 28.025 5.93 56.576c0 28.55 23.145 51.694 51.695 51.694z" fill="#D2D2D2"/><path d="M94.024 92.967c20.127-20.126 20.127-52.758 0-72.884-20.126-20.126-52.757-20.126-72.884 0-20.126 20.126-20.126 52.758 0 72.884 20.127 20.126 52.758 20.126 72.884 0z" fill="#D1D1D1"/><path d="M93.84 92.76c20.054-20.054 20.054-52.57 0-72.624C73.783.081 41.27.081 21.214 20.136s-20.055 52.57 0 72.624c20.055 20.055 52.57 20.055 72.624 0z" fill="#D0D0D0"/><path d="M57.468 107.535c28.26 0 51.17-22.909 51.17-51.17 0-28.26-22.91-51.17-51.17-51.17s-51.17 22.91-51.17 51.17c0 28.261 22.91 51.17 51.17 51.17z" fill="#CFCFCF"/><path d="M57.415 107.273c28.16 0 50.986-22.827 50.986-50.986 0-28.159-22.827-50.986-50.986-50.986C29.256 5.3 6.43 28.128 6.43 56.287c0 28.159 22.827 50.986 50.986 50.986z" fill="#CECECE"/><path d="M93.283 92.14c19.84-19.84 19.84-52.005 0-71.845-19.84-19.839-52.005-19.839-71.845 0C1.6 40.135 1.6 72.301 21.438 92.14c19.84 19.84 52.006 19.84 71.845 0z" fill="#CDCDCD"/><path d="M93.098 91.934c19.768-19.768 19.768-51.818 0-71.585C73.331.58 41.281.58 21.513 20.349c-19.768 19.767-19.768 51.817 0 71.585 19.768 19.767 51.817 19.767 71.585 0z" fill="#CCC"/><path d="M57.258 106.512c27.854 0 50.435-22.58 50.435-50.435 0-27.855-22.58-50.435-50.435-50.435-27.855 0-50.435 22.58-50.435 50.435 0 27.855 22.58 50.435 50.435 50.435z" fill="#CBCBCB"/><path d="M57.232 106.25c27.753 0 50.251-22.499 50.251-50.252 0-27.753-22.498-50.251-50.251-50.251-27.753 0-50.252 22.498-50.252 50.251 0 27.753 22.498 50.252 50.252 50.252z" fill="#CACACA"/><path d="M92.598 91.332c19.563-19.563 19.563-51.28 0-70.843C73.035.927 41.318.927 21.755 20.49c-19.563 19.563-19.563 51.28 0 70.843 19.563 19.563 51.28 19.563 70.843 0z" fill="#C9C9C9"/><path d="M57.127 105.751c27.564 0 49.91-22.345 49.91-49.91 0-27.565-22.346-49.91-49.91-49.91-27.565 0-49.91 22.345-49.91 49.91 0 27.565 22.345 49.91 49.91 49.91z" fill="#C8C8C8"/><path d="M57.074 105.489c27.463 0 49.727-22.264 49.727-49.727 0-27.463-22.264-49.727-49.727-49.727-27.463 0-49.727 22.264-49.727 49.727 0 27.463 22.264 49.727 49.727 49.727z" fill="#C7C7C7"/><path d="M92.042 90.712c19.348-19.347 19.348-50.716 0-70.063C72.695 1.3 41.326 1.3 21.98 20.649c-19.348 19.347-19.348 50.716 0 70.063 19.347 19.348 50.716 19.348 70.063 0z" fill="#C6C6C6"/><path d="M91.876 90.524c19.276-19.276 19.276-50.528 0-69.804-19.276-19.276-50.528-19.276-69.804 0-19.276 19.276-19.276 50.528 0 69.804 19.276 19.276 50.528 19.276 69.804 0z" fill="#C5C5C5"/><path d="M56.917 104.728c27.159 0 49.175-22.017 49.175-49.176 0-27.159-22.016-49.175-49.175-49.175-27.16 0-49.176 22.016-49.176 49.175 0 27.16 22.017 49.176 49.176 49.176z" fill="#C4C4C4"/><path d="M56.864 104.465c27.058 0 48.992-21.934 48.992-48.992 0-27.057-21.934-48.991-48.992-48.991-27.057 0-48.992 21.934-48.992 48.992 0 27.057 21.935 48.991 48.992 48.991z" fill="#C3C3C3"/><path d="M91.32 89.904c19.061-19.06 19.061-49.964 0-69.024-19.06-19.06-49.964-19.06-69.024 0-19.061 19.06-19.061 49.964 0 69.024 19.06 19.061 49.963 19.061 69.024 0z" fill="#C2C2C2"/><path d="M91.153 89.716c19-18.999 19-49.803 0-68.802-18.999-18.999-49.802-18.999-68.802 0-18.999 19-18.999 49.803 0 68.802 19 18.999 49.803 18.999 68.802 0z" fill="#C1C1C1"/><path d="M56.707 103.704c26.767 0 48.467-21.7 48.467-48.467S83.474 6.77 56.707 6.77C29.939 6.77 8.24 28.47 8.24 55.237c0 26.768 21.7 48.467 48.467 48.467z" fill="silver"/><path d="M56.654 103.468c26.666 0 48.284-21.617 48.284-48.283S83.32 6.9 56.654 6.9 8.371 28.52 8.371 55.185s21.617 48.283 48.283 48.283z" fill="#BFBFBF"/><path d="M90.616 89.115c18.784-18.784 18.784-49.239 0-68.023s-49.238-18.784-68.022 0c-18.784 18.784-18.784 49.239 0 68.023s49.238 18.784 68.022 0z" fill="#BEBEBE"/><path d="M56.55 102.943c26.463 0 47.915-21.452 47.915-47.916 0-26.463-21.452-47.916-47.916-47.916-26.463 0-47.916 21.453-47.916 47.916 0 26.464 21.453 47.916 47.916 47.916z" fill="#BDBDBD"/><path d="M56.497 102.681c26.362 0 47.732-21.37 47.732-47.732S82.859 7.216 56.497 7.216 8.765 28.586 8.765 54.95c0 26.362 21.37 47.732 47.732 47.732z" fill="#BCBCBC"/><path d="M90.06 88.495c18.569-18.569 18.569-48.675 0-67.244-18.568-18.568-48.674-18.568-67.243 0-18.568 18.57-18.568 48.675 0 67.244 18.57 18.568 48.675 18.568 67.244 0z" fill="#BBB"/><path d="M89.875 88.288c18.497-18.497 18.497-48.486 0-66.983-18.497-18.497-48.486-18.497-66.983 0-18.497 18.496-18.497 48.486 0 66.983 18.497 18.497 48.486 18.497 66.983 0z" fill="#BABABA"/><path d="M56.34 101.946c26.071 0 47.207-21.135 47.207-47.207S82.411 7.53 56.339 7.53 9.132 28.667 9.132 54.74s21.135 47.207 47.207 47.207z" fill="#B9B9B9"/><path d="M89.542 87.912c18.364-18.364 18.364-48.137 0-66.501-18.364-18.364-48.137-18.364-66.501 0-18.364 18.364-18.364 48.137 0 66.5 18.364 18.365 48.137 18.365 66.501 0z" fill="#B8B8B8"/><path d="M56.234 101.421c25.87 0 46.841-20.97 46.841-46.84 0-25.869-20.972-46.84-46.84-46.84-25.87 0-46.84 20.971-46.84 46.84 0 25.87 20.97 46.84 46.84 46.84z" fill="#B7B7B7"/><path d="M56.182 101.159c25.768 0 46.656-20.889 46.656-46.657 0-25.767-20.888-46.656-46.656-46.656-25.768 0-46.656 20.889-46.656 46.656 0 25.768 20.888 46.657 46.656 46.657z" fill="#B6B6B6"/><path d="M88.986 87.292c18.149-18.149 18.149-47.573 0-65.722-18.148-18.149-47.573-18.149-65.721 0-18.149 18.149-18.149 47.573 0 65.722 18.148 18.148 47.573 18.148 65.721 0z" fill="#B5B5B5"/><path d="M88.801 87.085c18.077-18.077 18.077-47.385 0-65.462-18.077-18.077-47.385-18.077-65.462 0-18.077 18.077-18.077 47.385 0 65.462 18.077 18.077 47.385 18.077 65.462 0z" fill="#B4B4B4"/><path d="M56.025 100.398c25.463 0 46.105-20.642 46.105-46.105 0-25.464-20.642-46.106-46.105-46.106-25.464 0-46.106 20.642-46.106 46.105 0 25.464 20.642 46.106 46.106 46.106z" fill="#B3B3B3"/><path d="M88.45 86.69c17.933-17.933 17.933-47.009 0-64.942-17.934-17.933-47.01-17.933-64.943 0-17.934 17.933-17.934 47.01 0 64.942 17.933 17.934 47.009 17.934 64.942 0z" fill="#B2B2B2"/><path d="M88.283 86.502c17.872-17.872 17.872-46.848 0-64.72-17.872-17.871-46.848-17.871-64.72 0-17.872 17.872-17.872 46.848 0 64.72s46.848 17.872 64.72 0z" fill="#B1B1B1"/><path d="M88.097 86.296c17.801-17.8 17.801-46.66 0-64.46-17.8-17.8-46.66-17.8-64.46 0-17.8 17.8-17.8 46.66 0 64.46 17.8 17.8 46.66 17.8 64.46 0z" fill="#B0B0B0"/><path d="M55.815 99.375c25.072 0 45.397-20.325 45.397-45.397S80.887 8.58 55.815 8.58 10.418 28.906 10.418 53.978s20.325 45.397 45.397 45.397z" fill="#AFAFAF"/><path d="M87.746 85.864c17.656-17.657 17.656-46.284 0-63.94-17.657-17.657-46.284-17.657-63.941 0-17.657 17.656-17.657 46.283 0 63.94 17.657 17.656 46.284 17.657 63.94 0z" fill="#AEAEAE"/><path d="M87.579 85.676c17.585-17.585 17.585-46.096 0-63.681s-46.096-17.585-63.68 0c-17.586 17.585-17.586 46.096 0 63.68 17.584 17.586 46.095 17.586 63.68 0z" fill="#ADADAD"/><path d="M55.683 98.614c24.768 0 44.846-20.079 44.846-44.846 0-24.768-20.078-44.846-44.846-44.846-24.767 0-44.846 20.078-44.846 44.846 0 24.767 20.079 44.846 44.846 44.846z" fill="#ACACAC"/><path d="M55.63 98.351c24.667 0 44.663-19.996 44.663-44.662S80.297 9.027 55.631 9.027 10.969 29.023 10.969 53.689 30.965 98.351 55.63 98.351z" fill="#ABABAB"/><path d="M87.023 85.056c17.37-17.37 17.37-45.532 0-62.902-17.37-17.37-45.532-17.37-62.901 0-17.37 17.37-17.37 45.532 0 62.902 17.37 17.369 45.531 17.369 62.901 0z" fill="#AAA"/><path d="M86.856 84.868c17.309-17.309 17.309-45.37 0-62.68-17.308-17.307-45.37-17.307-62.678 0-17.309 17.31-17.309 45.371 0 62.68 17.308 17.308 45.37 17.308 62.678 0z" fill="#A9A9A9"/><path d="M55.473 97.59c24.377 0 44.138-19.76 44.138-44.137S79.85 9.316 55.473 9.316c-24.376 0-44.137 19.76-44.137 44.137 0 24.376 19.761 44.137 44.137 44.137z" fill="#A8A8A8"/><path d="M86.504 84.473c17.165-17.165 17.165-44.995 0-62.16C69.34 5.15 41.51 5.15 24.345 22.314c-17.164 17.165-17.164 44.995 0 62.16 17.165 17.165 44.995 17.165 62.16 0z" fill="#A7A7A7"/><path d="M86.32 84.266c17.092-17.093 17.092-44.806 0-61.9-17.094-17.092-44.807-17.092-61.9 0-17.093 17.094-17.093 44.807 0 61.9 17.093 17.093 44.806 17.093 61.9 0z" fill="#A6A6A6"/><path d="M55.316 96.83c24.072 0 43.586-19.515 43.586-43.587 0-24.072-19.514-43.586-43.586-43.586S11.73 29.17 11.73 53.243s19.514 43.586 43.586 43.586z" fill="#A5A5A5"/><path d="M55.264 96.567c23.97 0 43.402-19.432 43.402-43.403 0-23.97-19.432-43.402-43.402-43.402-23.971 0-43.403 19.432-43.403 43.402 0 23.97 19.432 43.403 43.403 43.403z" fill="#A4A4A4"/><path d="M53.19 105.804c29.188 0 52.85-23.662 52.85-52.85C106.04 23.766 82.378.105 53.19.105 24.003.105.342 23.766.342 52.955c0 29.187 23.662 52.849 52.85 52.849z" fill="url(#paint0_linear_44_1785)"/><path opacity=".2" d="M61.693 105.121c24.089-3.909 42.746-24.115 44.242-48.939L73.947 24.273l-2.493-.604-33.116.08-3.254 3.043.84.945s-3.936.682-4.776 1.128c-.84.473-7.846 9.657-7.846 9.657l-.525.945-2.676-.263-.604.787.131 15.876L36.79 73.03l-.682 6.481 25.585 25.611z" fill="#000"/><path d="M49.36 33.667h7.977c.787 0 1.443-.656 1.443-1.443v-7.111c-7.007.105-9.736.078-10.864.026v7.085a1.44 1.44 0 001.443 1.443zm.052-6.901h7.898c.263 0 .499.21.499.498 0 .29-.21.499-.499.499h-7.898a.498.498 0 01-.499-.499c0-.288.21-.498.499-.498zm19.864-.735a2.277 2.277 0 00-1.102-.262c-.63 0-1.26.236-1.758.734a2.44 2.44 0 00-.446 2.834l3.306-3.306zM66.6 30.125c.97.813 2.414.787 3.332-.131.919-.919.945-2.362.131-3.333L66.6 30.125zM54.345 58.229c4.802 2.624 7.348 1.758 8.056 1.39-.656-3.568.551-6.297.971-7.085-1.784-2.834-4.933-4.592-8.292-4.592-5.17 0-9.42 4.041-9.762 9.132 1.234-.446 4.645-1.233 9.027 1.155z" fill="#fff"/><path d="M54.844 71.244c7.347 0 13.356-5.983 13.356-13.356 0-7.374-6.009-13.33-13.356-13.33-7.348 0-13.357 5.982-13.357 13.356 0 7.373 6.01 13.33 13.357 13.33zm.21-24.299c3.778 0 7.347 2.02 9.263 5.274.052.105.078.184.052.29 0 .104 0 .21-.052.288-.027.052-2.52 4.408.026 9.604a.238.238 0 01.026.131c.105.158.131.368.026.525a10.822 10.822 0 01-9.341 5.406c-5.93 0-10.785-4.829-10.785-10.785.026-5.905 4.854-10.733 10.785-10.733z" fill="#fff"/><path d="M36.528 36.632a7.96 7.96 0 01-1.444 1.575V76.99a3.629 3.629 0 003.621 3.621h32.776a3.628 3.628 0 003.62-3.62v-40.36H36.529zm18.316 6.928c7.898 0 14.327 6.43 14.327 14.328s-6.429 14.327-14.327 14.327c-7.899 0-14.328-6.429-14.328-14.327 0-7.899 6.43-14.328 14.328-14.328zm-27.37-1.994c1.155-1.47 2.808-2.493 4.619-2.94 2.02-.445 3.201-1.941 3.647-2.545l3.385-4.408a.754.754 0 00.132-.525c-.027-.184-.158-.341-.315-.446a.599.599 0 00-.761.079c-2.047 1.81-4.75 4.014-6.062 4.146-.131 0-.262-.026-.341-.105-.892-.683-1.155-1.916-.656-2.913a3.93 3.93 0 012.781-2.1l1.47-.288c0-.105 0-.236.026-.341a3.449 3.449 0 01.551-1.443l-3.149.21c-1.102.078-2.178.524-2.965 1.312a27.736 27.736 0 00-5.17 6.796c-.393.761-.84 1.6-1.311 2.493v.026c1.18.866 2.702 1.995 4.146 3.07l-.027-.078z" fill="#fff"/><path d="M43.98 25.27h-4.933v1.102c.367.053.682.158.997.315a.48.48 0 01.472-.42h1.968c.263 0 .499.21.499.499v5.93c0 .263-.21.499-.499.499h-.997a.498.498 0 110-.997h.499v-4.934h-.997v.21c.052.053.078.105.13.158.526.682.762 1.548.657 2.388a3.24 3.24 0 01-2.205 2.65l-.55.735v.288h4.933V25.27h.026zM27.002 45.686l-1.548-1.155a.498.498 0 01-.105-.682.498.498 0 01.682-.105l1.522 1.154.945-1.286c-1.89-1.364-6.088-4.408-7.505-5.563l-.945 1.181 4.619 3.49c.21.158.262.473.104.683a.472.472 0 01-.393.183.395.395 0 01-.289-.105l-4.618-3.49-1.05 1.339 1.181 14.537 7.4-10.181zm35.609 14.931c-.472.21-1.26.446-2.335.446-1.496 0-3.622-.446-6.403-1.968-4.697-2.546-8.082-1.181-8.581-.971.21 5.195 4.513 9.368 9.762 9.368 3.41 0 6.586-1.81 8.37-4.724-.367-.734-.63-1.47-.813-2.151zm-8.082.682a.508.508 0 01-.446.262.764.764 0 01-.236-.052c-2.86-1.575-5.275-1.653-6.797-1.443-.262.026-.525-.158-.551-.42-.026-.263.157-.525.42-.551 1.653-.236 4.303-.131 7.4 1.548.262.105.341.393.21.656zm6.088 2.125h-.341c-1.129 0-2.362-.236-3.7-.734-.263-.105-.394-.368-.29-.63.106-.263.368-.394.63-.289 1.339.473 2.572.709 3.648.656.263-.026.499.21.525.473 0 .288-.21.524-.472.524zM35.452 30.492l-.394.079v1.47c.262-.21.525-.42.813-.657-.183-.262-.314-.577-.42-.892z" fill="#fff"/><path d="M39.414 29.836c.394.236.682.656.787 1.102 0 .053 0 .105.026.158.315-.342.525-.762.578-1.234a2.19 2.19 0 00-.446-1.653.533.533 0 01-.315-.315 2.203 2.203 0 00-1.181-.525 2.248 2.248 0 00-2.52 1.942c-.078.525.053 1.023.316 1.47.262-.236.55-.473.84-.735a1.587 1.587 0 011.915-.21z" fill="#fff"/><path d="M37.184 26.66c.262-.13.55-.21.866-.262v-1.6c0-.263.21-.499.498-.499h5.93a.5.5 0 01.5.499v9.394a.5.5 0 01-.5.499h-5.93c-.157 0-.262-.08-.367-.158l-.892 1.155h37.839v-8.739a3.629 3.629 0 00-3.621-3.62H38.705a3.638 3.638 0 00-3.62 3.49l2.099-.158zm28.55-.865a3.469 3.469 0 014.88 0 3.469 3.469 0 010 4.88 3.418 3.418 0 01-2.44 1.024 3.374 3.374 0 01-2.44-1.023 3.469 3.469 0 010-4.881zm-18.789-1.18c0-.21.131-.395.315-.447a.39.39 0 01.341 0c.709.105 7.531.026 11.704-.026a.5.5 0 01.34.13c.106.106.158.21.158.342v7.61a2.453 2.453 0 01-2.44 2.44h-7.977a2.453 2.453 0 01-2.44-2.44v-7.61z" fill="#fff"/></g><defs><linearGradient id="paint0_linear_44_1785" x1="-8.151" y1="5.165" x2="82.568" y2="75.855" gradientUnits="userSpaceOnUse"><stop stop-color="#2AEEDD"/><stop offset="1" stop-color="#00BF92"/></linearGradient><clipPath id="clip0_44_1785"><path fill="#fff" d="M0 0h120v120H0z"/></clipPath></defs></svg>