<svg width="120" height="120" fill="none" xmlns="http://www.w3.org/2000/svg"><g clip-path="url(#clip0_44_1677)"><path d="M102.452 102.439c23.436-23.437 23.436-61.434 0-84.87-23.437-23.437-61.435-23.437-84.871 0-23.436 23.436-23.436 61.433 0 84.87 23.436 23.436 61.434 23.436 84.871 0z" fill="#fff"/><path d="M59.96 119.764c33.044 0 59.83-26.787 59.83-59.83S93.003.104 59.96.104C26.919.105.132 26.892.132 59.935s26.787 59.83 59.83 59.83z" fill="#FEFEFE"/><path d="M102.081 102.025c23.293-23.293 23.293-61.058 0-84.35-23.293-23.294-61.058-23.294-84.35 0-23.294 23.292-23.294 61.057 0 84.35 23.292 23.293 61.057 23.293 84.35 0z" fill="#FDFDFD"/><path d="M101.896 101.819c23.221-23.222 23.221-60.87 0-84.091-23.221-23.222-60.87-23.222-84.091 0-23.221 23.22-23.221 60.87 0 84.091 23.22 23.221 60.87 23.221 84.091 0z" fill="#FCFCFC"/><path d="M59.803 118.977c32.739 0 59.279-26.54 59.279-59.279C119.082 26.96 92.542.42 59.803.42 27.065.42.525 26.96.525 59.698c0 32.739 26.54 59.279 59.278 59.279z" fill="#FBFBFB"/><path d="M59.75 118.714c32.638 0 59.095-26.457 59.095-59.094 0-32.638-26.457-59.095-59.094-59.095S.656 26.982.656 59.62c0 32.637 26.458 59.094 59.095 59.094z" fill="#FAFAFA"/><path d="M101.359 101.217c23.006-23.006 23.006-60.306 0-83.312s-60.306-23.006-83.312 0-23.006 60.306 0 83.312 60.306 23.006 83.312 0z" fill="#F9F9F9"/><path d="M101.192 101.029c22.945-22.944 22.945-60.145 0-83.09-22.944-22.944-60.145-22.944-83.09 0-22.944 22.945-22.944 60.146 0 83.09 22.945 22.945 60.146 22.945 83.09 0z" fill="#F8F8F8"/><path d="M59.593 117.979c32.347 0 58.57-26.222 58.57-58.57 0-32.347-26.222-58.57-58.57-58.57-32.347 0-58.57 26.223-58.57 58.57 0 32.348 26.223 58.57 58.57 58.57z" fill="#F7F7F7"/><path d="M59.54 117.717c32.247 0 58.387-26.14 58.387-58.386S91.787.945 59.541.945 1.155 27.085 1.155 59.33s26.14 58.386 58.386 58.386z" fill="#F6F6F6"/><path d="M100.637 100.409c22.729-22.729 22.729-59.58 0-82.31-22.73-22.729-59.581-22.729-82.31 0-22.73 22.73-22.73 59.581 0 82.31 22.729 22.73 59.58 22.73 82.31 0z" fill="#F5F5F5"/><path d="M100.451 100.202c22.658-22.657 22.658-59.392 0-82.05-22.657-22.657-59.392-22.657-82.05 0-22.658 22.658-22.658 59.393 0 82.05 22.658 22.658 59.393 22.658 82.05 0z" fill="#F4F4F4"/><path d="M59.383 116.956c31.942 0 57.835-25.894 57.835-57.835 0-31.942-25.893-57.835-57.835-57.835-31.941 0-57.835 25.893-57.835 57.835 0 31.941 25.894 57.835 57.835 57.835z" fill="#F3F3F3"/><path d="M100.099 99.808c22.514-22.514 22.514-59.017 0-81.53-22.514-22.515-59.016-22.515-81.53 0-22.514 22.513-22.514 59.016 0 81.53 22.514 22.514 59.016 22.514 81.53 0z" fill="#F2F2F2"/><path d="M99.914 99.601c22.442-22.442 22.442-58.828 0-81.27-22.442-22.443-58.828-22.443-81.27 0C-3.8 40.772-3.8 77.158 18.643 99.6c22.442 22.442 58.828 22.442 81.27 0z" fill="#F1F1F1"/><path d="M59.226 116.195c31.651 0 57.31-25.659 57.31-57.31 0-31.652-25.659-57.31-57.31-57.31-31.652 0-57.31 25.658-57.31 57.31 0 31.651 25.658 57.31 57.31 57.31z" fill="#F0F0F0"/><path d="M59.173 115.933c31.55 0 57.127-25.577 57.127-57.127S90.724 1.679 59.173 1.679c-31.55 0-57.126 25.577-57.126 57.127s25.576 57.127 57.126 57.127z" fill="#EFEFEF"/><path d="M99.377 99c22.237-22.238 22.237-58.292 0-80.529-22.237-22.237-58.291-22.237-80.529 0-22.237 22.237-22.237 58.291 0 80.529 22.238 22.237 58.292 22.237 80.529 0z" fill="#EEE"/><path d="M99.21 98.812c22.166-22.166 22.166-58.104 0-80.27-22.165-22.165-58.103-22.165-80.269 0-22.165 22.166-22.165 58.104 0 80.27 22.166 22.165 58.104 22.165 80.27 0z" fill="#EDEDED"/><path d="M59.016 115.172c31.246 0 56.576-25.33 56.576-56.576 0-31.246-25.33-56.575-56.576-56.575C27.77 2.02 2.44 27.35 2.44 58.596c0 31.246 25.33 56.576 56.576 56.576z" fill="#ECECEC"/><path d="M58.964 114.909c31.144 0 56.391-25.247 56.391-56.392 0-31.144-25.247-56.392-56.392-56.392-31.144 0-56.391 25.248-56.391 56.392 0 31.145 25.247 56.392 56.392 56.392z" fill="#EBEBEB"/><path d="M98.655 98.192c21.95-21.95 21.95-57.54 0-79.49-21.95-21.95-57.54-21.95-79.49 0-21.95 21.95-21.95 57.54 0 79.49 21.95 21.95 57.54 21.95 79.49 0z" fill="#EAEAEA"/><path d="M58.858 114.384c30.942 0 56.025-25.083 56.025-56.024 0-30.942-25.083-56.025-56.024-56.025-30.942 0-56.025 25.083-56.025 56.025 0 30.941 25.083 56.024 56.024 56.024z" fill="#E9E9E9"/><path d="M58.806 114.174c30.855 0 55.867-25.012 55.867-55.867 0-30.854-25.013-55.867-55.867-55.867-30.854 0-55.867 25.013-55.867 55.867 0 30.855 25.012 55.867 55.867 55.867z" fill="#E8E8E8"/><path d="M98.136 97.609c21.745-21.746 21.745-57.002 0-78.748-21.745-21.745-57.002-21.745-78.747 0-21.746 21.746-21.746 57.002 0 78.748 21.745 21.745 57.002 21.745 78.747 0z" fill="#E7E7E7"/><path d="M97.97 97.384c21.673-21.674 21.673-56.814 0-78.488-21.674-21.674-56.814-21.674-78.488 0s-21.674 56.814 0 78.488c21.674 21.673 56.814 21.673 78.487 0z" fill="#E6E6E6"/><path d="M58.675 113.387c30.55 0 55.316-24.766 55.316-55.316 0-30.55-24.766-55.316-55.316-55.316-30.55 0-55.316 24.766-55.316 55.316 0 30.55 24.766 55.316 55.316 55.316z" fill="#E5E5E5"/><path d="M58.622 113.125c30.45 0 55.133-24.684 55.133-55.133 0-30.448-24.684-55.132-55.133-55.132C28.174 2.86 3.49 27.544 3.49 57.993c0 30.448 24.684 55.132 55.132 55.132z" fill="#E4E4E4"/><path d="M97.414 96.764c21.458-21.459 21.458-56.25 0-77.709-21.459-21.458-56.25-21.458-77.709 0-21.458 21.459-21.458 56.25 0 77.709 21.459 21.458 56.25 21.458 77.709 0z" fill="#E3E3E3"/><path d="M97.247 96.576c21.387-21.387 21.387-56.062 0-77.45C75.86-2.26 41.185-2.26 19.8 19.127c-21.387 21.388-21.387 56.063 0 77.45 21.386 21.386 56.061 21.386 77.448 0z" fill="#E2E2E2"/><path d="M58.465 112.364c30.144 0 54.581-24.437 54.581-54.581 0-30.145-24.437-54.582-54.581-54.582-30.145 0-54.581 24.437-54.581 54.582 0 30.144 24.436 54.581 54.58 54.581z" fill="#E1E1E1"/><path d="M58.412 112.128c30.058 0 54.424-24.367 54.424-54.424 0-30.058-24.366-54.424-54.424-54.424C28.355 3.28 3.99 27.646 3.99 57.704c0 30.057 24.366 54.424 54.423 54.424z" fill="#E0E0E0"/><path d="M96.71 95.974c21.182-21.182 21.182-55.525 0-76.706-21.182-21.182-55.525-21.182-76.706 0-21.182 21.181-21.182 55.524 0 76.706 21.181 21.182 55.524 21.182 76.706 0z" fill="#DFDFDF"/><path d="M96.525 95.767c21.11-21.11 21.11-55.336 0-76.446s-55.337-21.11-76.447 0-21.11 55.336 0 76.446 55.337 21.11 76.447 0z" fill="#DEDEDE"/><path d="M96.34 95.56c21.038-21.038 21.038-55.148 0-76.186-21.039-21.039-55.149-21.039-76.187 0-21.039 21.038-21.039 55.148 0 76.187 21.038 21.038 55.148 21.038 76.187 0z" fill="#DDD"/><path d="M96.173 95.373c20.966-20.967 20.966-54.96 0-75.928-20.967-20.966-54.96-20.966-75.927 0-20.967 20.967-20.967 54.96 0 75.928 20.966 20.966 54.96 20.966 75.927 0z" fill="#DCDCDC"/><path d="M58.15 110.842c29.55 0 53.505-23.955 53.505-53.505 0-29.55-23.955-53.506-53.505-53.506-29.55 0-53.505 23.955-53.505 53.505 0 29.55 23.955 53.506 53.505 53.506z" fill="#DBDBDB"/><path d="M95.802 94.96c20.824-20.824 20.824-54.585 0-75.408-20.823-20.823-54.584-20.823-75.407 0-20.823 20.823-20.823 54.584 0 75.407 20.823 20.823 54.584 20.823 75.407 0z" fill="#DADADA"/><path d="M95.617 94.753c20.752-20.752 20.752-54.397 0-75.148-20.751-20.752-54.396-20.752-75.148 0C-.282 40.356-.282 74 20.47 94.753c20.752 20.751 54.397 20.751 75.148 0z" fill="#D9D9D9"/><path d="M57.993 110.081c29.26 0 52.98-23.72 52.98-52.98 0-29.26-23.72-52.981-52.98-52.981-29.26 0-52.981 23.72-52.981 52.98 0 29.26 23.72 52.981 52.98 52.981z" fill="#D8D8D8"/><path d="M57.94 109.818c29.159 0 52.797-23.638 52.797-52.796 0-29.16-23.638-52.797-52.797-52.797-29.159 0-52.797 23.638-52.797 52.797 0 29.158 23.638 52.796 52.797 52.796z" fill="#D7D7D7"/><path d="M95.099 94.17c20.546-20.547 20.546-53.86 0-74.406-20.547-20.546-53.86-20.546-74.406 0-20.547 20.547-20.547 53.86 0 74.406 20.546 20.546 53.859 20.546 74.406 0z" fill="#D6D6D6"/><path d="M94.913 93.963c20.475-20.475 20.475-53.671 0-74.146-20.474-20.475-53.67-20.475-74.145 0-20.475 20.475-20.475 53.671 0 74.146 20.474 20.475 53.67 20.475 74.145 0z" fill="#D5D5D5"/><path d="M57.783 109.058c28.854 0 52.245-23.392 52.245-52.246 0-28.855-23.39-52.246-52.245-52.246-28.855 0-52.246 23.391-52.246 52.246 0 28.854 23.391 52.246 52.246 52.246z" fill="#D4D4D4"/><path d="M94.543 93.55c20.331-20.331 20.331-53.295 0-73.626-20.332-20.332-53.295-20.332-73.626 0-20.332 20.33-20.332 53.295 0 73.626 20.33 20.331 53.294 20.331 73.626 0z" fill="#D3D3D3"/><path d="M94.358 93.343c20.259-20.26 20.259-53.107 0-73.366-20.26-20.26-53.107-20.26-73.367 0-20.26 20.26-20.26 53.106 0 73.366 20.26 20.26 53.107 20.26 73.367 0z" fill="#D2D2D2"/><path d="M57.625 108.27c28.55 0 51.695-23.144 51.695-51.694 0-28.55-23.145-51.695-51.695-51.695S5.93 28.025 5.93 56.576c0 28.55 23.145 51.694 51.695 51.694z" fill="#D2D2D2"/><path d="M57.573 108.06c28.463 0 51.537-23.074 51.537-51.537 0-28.463-23.074-51.537-51.537-51.537-28.463 0-51.538 23.074-51.538 51.537 0 28.463 23.075 51.537 51.538 51.537z" fill="#D1D1D1"/><path d="M93.84 92.76c20.054-20.054 20.054-52.57 0-72.624C73.783.081 41.27.081 21.214 20.136s-20.055 52.57 0 72.624c20.054 20.055 52.57 20.055 72.624 0z" fill="#D0D0D0"/><path d="M93.654 92.554c19.983-19.983 19.983-52.382 0-72.365C73.67.206 41.272.206 21.289 20.19c-19.983 19.983-19.983 52.382 0 72.365 19.983 19.982 52.382 19.982 72.365 0z" fill="#CFCFCF"/><path d="M57.415 107.273c28.16 0 50.987-22.827 50.987-50.986 0-28.159-22.828-50.986-50.987-50.986C29.256 5.3 6.43 28.128 6.43 56.287c0 28.159 22.827 50.986 50.986 50.986z" fill="#CECECE"/><path d="M57.363 107.011c28.057 0 50.802-22.745 50.802-50.803 0-28.057-22.745-50.802-50.802-50.802C29.305 5.406 6.56 28.15 6.56 56.208s22.745 50.803 50.803 50.803z" fill="#CDCDCD"/><path d="M93.098 91.934c19.768-19.768 19.768-51.818 0-71.586C73.331.581 41.281.581 21.513 20.348c-19.768 19.768-19.768 51.818 0 71.586 19.768 19.767 51.817 19.767 71.585 0z" fill="#CCC"/><path d="M57.258 106.512c27.854 0 50.435-22.58 50.435-50.435 0-27.855-22.58-50.435-50.435-50.435-27.855 0-50.435 22.58-50.435 50.435 0 27.855 22.58 50.435 50.435 50.435z" fill="#CBCBCB"/><path d="M57.232 106.25c27.753 0 50.251-22.499 50.251-50.252 0-27.753-22.498-50.251-50.251-50.251-27.753 0-50.252 22.498-50.252 50.251 0 27.753 22.498 50.252 50.252 50.252z" fill="#CACACA"/><path d="M92.598 91.332c19.563-19.563 19.563-51.28 0-70.843C73.035.927 41.318.927 21.755 20.49c-19.563 19.563-19.563 51.28 0 70.843 19.563 19.563 51.28 19.563 70.843 0z" fill="#C9C9C9"/><path d="M92.413 91.126c19.491-19.492 19.491-51.093 0-70.584-19.491-19.49-51.092-19.49-70.583 0-19.491 19.491-19.491 51.093 0 70.584 19.49 19.49 51.092 19.49 70.583 0z" fill="#C8C8C8"/><path d="M57.074 105.489c27.463 0 49.727-22.264 49.727-49.727 0-27.463-22.264-49.727-49.727-49.727-27.463 0-49.727 22.264-49.727 49.727 0 27.463 22.264 49.727 49.727 49.727z" fill="#C7C7C7"/><path d="M57.022 105.226c27.361 0 49.543-22.18 49.543-49.543 0-27.361-22.181-49.543-49.543-49.543S7.479 28.321 7.479 55.683s22.18 49.543 49.543 49.543z" fill="#C6C6C6"/><path d="M91.876 90.524c19.276-19.276 19.276-50.528 0-69.804-19.276-19.276-50.528-19.276-69.804 0-19.276 19.276-19.276 50.528 0 69.804 19.276 19.276 50.528 19.276 69.804 0z" fill="#C5C5C5"/><path d="M91.69 90.317c19.205-19.204 19.205-50.34 0-69.544-19.204-19.204-50.34-19.204-69.544 0-19.204 19.204-19.204 50.34 0 69.544 19.204 19.205 50.34 19.205 69.544 0z" fill="#C4C4C4"/><path d="M56.864 104.465c27.058 0 48.992-21.934 48.992-48.992 0-27.057-21.934-48.991-48.992-48.991-27.057 0-48.992 21.934-48.992 48.992 0 27.057 21.935 48.991 48.992 48.991z" fill="#C3C3C3"/><path d="M91.32 89.904c19.061-19.06 19.061-49.964 0-69.024-19.06-19.061-49.964-19.061-69.024 0-19.061 19.06-19.061 49.964 0 69.024 19.06 19.061 49.963 19.061 69.024 0z" fill="#C2C2C2"/><path d="M91.153 89.716c19-19 19-49.803 0-68.802-18.999-18.999-49.802-18.999-68.802 0-18.999 19-18.999 49.803 0 68.802 19 18.999 49.803 18.999 68.802 0z" fill="#C1C1C1"/><path d="M56.707 103.704c26.767 0 48.467-21.7 48.467-48.467S83.474 6.77 56.707 6.77C29.939 6.77 8.24 28.47 8.24 55.237c0 26.768 21.7 48.467 48.467 48.467z" fill="silver"/><path d="M56.654 103.468c26.666 0 48.284-21.617 48.284-48.283C104.938 28.518 83.32 6.9 56.654 6.9S8.371 28.518 8.371 55.185c0 26.666 21.617 48.283 48.283 48.283z" fill="#BFBFBF"/><path d="M90.616 89.115c18.784-18.784 18.784-49.24 0-68.023-18.784-18.784-49.238-18.784-68.022 0-18.784 18.784-18.784 49.239 0 68.023s49.238 18.784 68.022 0z" fill="#BEBEBE"/><path d="M90.431 88.908c18.712-18.712 18.712-49.05 0-67.763-18.712-18.712-49.05-18.712-67.763 0-18.712 18.712-18.712 49.05 0 67.763 18.712 18.712 49.05 18.712 67.763 0z" fill="#BDBDBD"/><path d="M56.497 102.681c26.362 0 47.732-21.37 47.732-47.732S82.859 7.216 56.497 7.216 8.764 28.586 8.764 54.95c0 26.361 21.371 47.732 47.733 47.732z" fill="#BCBCBC"/><path d="M56.444 102.418c26.26 0 47.549-21.288 47.549-47.548S82.705 7.32 56.444 7.32c-26.26 0-47.548 21.288-47.548 47.549 0 26.26 21.288 47.548 47.548 47.548z" fill="#BBB"/><path d="M89.875 88.288c18.497-18.497 18.497-48.487 0-66.984-18.497-18.497-48.486-18.497-66.983 0-18.497 18.497-18.497 48.487 0 66.984 18.497 18.497 48.486 18.497 66.983 0z" fill="#BABABA"/><path d="M89.727 88.118c18.436-18.435 18.436-48.325 0-66.76-18.435-18.436-48.325-18.436-66.76 0-18.436 18.435-18.436 48.325 0 66.76 18.435 18.436 48.325 18.436 66.76 0z" fill="#B9B9B9"/><path d="M56.287 101.684c25.97 0 47.024-21.053 47.024-47.024 0-25.97-21.054-47.024-47.024-47.024-25.97 0-47.024 21.053-47.024 47.024 0 25.97 21.053 47.024 47.024 47.024z" fill="#B8B8B8"/><path d="M89.357 87.705c18.292-18.292 18.292-47.95 0-66.241-18.292-18.292-47.95-18.292-66.242 0s-18.292 47.949 0 66.241c18.293 18.292 47.95 18.292 66.242 0z" fill="#B7B7B7"/><path d="M89.172 87.499c18.22-18.22 18.22-47.762 0-65.982s-47.762-18.22-65.982 0-18.22 47.761 0 65.982c18.22 18.22 47.761 18.22 65.982 0z" fill="#B6B6B6"/><path d="M56.13 100.896c25.666 0 46.472-20.806 46.472-46.472S81.796 7.95 56.129 7.95c-25.666 0-46.472 20.806-46.472 46.473 0 25.666 20.806 46.472 46.472 46.472z" fill="#B5B5B5"/><path d="M56.077 100.634c25.565 0 46.289-20.724 46.289-46.289S81.642 8.056 56.077 8.056 9.787 28.78 9.787 54.346c0 25.564 20.725 46.288 46.29 46.288z" fill="#B4B4B4"/><path d="M88.634 86.897c18.006-18.005 18.006-47.197 0-65.202-18.005-18.005-47.197-18.005-65.202 0-18.005 18.005-18.005 47.197 0 65.202 18.005 18.005 47.197 18.005 65.202 0z" fill="#B3B3B3"/><path d="M88.45 86.69c17.933-17.933 17.933-47.009 0-64.942-17.934-17.934-47.01-17.934-64.943 0-17.934 17.933-17.934 47.009 0 64.942 17.933 17.934 47.009 17.934 64.942 0z" fill="#B2B2B2"/><path d="M55.92 99.9c25.274 0 45.764-20.49 45.764-45.765 0-25.275-20.49-45.764-45.764-45.764-25.275 0-45.765 20.49-45.765 45.764 0 25.275 20.49 45.764 45.764 45.764z" fill="#B1B1B1"/><path d="M55.867 99.637c25.173 0 45.581-20.407 45.581-45.58 0-25.174-20.407-45.581-45.58-45.581-25.174 0-45.582 20.407-45.582 45.58 0 25.174 20.408 45.58 45.581 45.58z" fill="#B0B0B0"/><path d="M87.912 86.089c17.729-17.728 17.729-46.472 0-64.2-17.728-17.729-46.472-17.729-64.2 0-17.729 17.728-17.729 46.472 0 64.2 17.728 17.728 46.472 17.728 64.2 0z" fill="#AFAFAF"/><path d="M55.788 99.112c24.97 0 45.214-20.242 45.214-45.213 0-24.97-20.243-45.213-45.214-45.213-24.97 0-45.213 20.242-45.213 45.213 0 24.97 20.243 45.213 45.213 45.213z" fill="#AEAEAE"/><path d="M55.736 98.876c24.869 0 45.029-20.16 45.029-45.03 0-24.869-20.16-45.03-45.03-45.03-24.868 0-45.029 20.161-45.029 45.03 0 24.87 20.16 45.03 45.03 45.03z" fill="#ADADAD"/><path d="M87.394 85.469c17.513-17.513 17.513-45.908 0-63.42-17.514-17.514-45.908-17.514-63.421 0-17.514 17.512-17.514 45.907 0 63.42 17.513 17.513 45.907 17.513 63.42 0z" fill="#ACACAC"/><path d="M55.63 98.351c24.667 0 44.663-19.996 44.663-44.662S80.297 9.027 55.631 9.027 10.969 29.023 10.969 53.689 30.965 98.351 55.63 98.351z" fill="#ABABAB"/><path d="M87.023 85.056c17.37-17.37 17.37-45.532 0-62.902-17.37-17.37-45.532-17.37-62.901 0-17.37 17.37-17.37 45.532 0 62.902 17.37 17.369 45.531 17.369 62.901 0z" fill="#AAA"/><path d="M86.856 84.868c17.309-17.309 17.309-45.37 0-62.68-17.308-17.307-45.37-17.307-62.678 0-17.309 17.31-17.309 45.371 0 62.68 17.308 17.308 45.37 17.308 62.678 0z" fill="#A9A9A9"/><path d="M86.671 84.66c17.237-17.236 17.237-45.182 0-62.418-17.236-17.237-45.182-17.237-62.419 0-17.236 17.236-17.236 45.182 0 62.419 17.237 17.236 45.183 17.236 62.42 0z" fill="#A8A8A8"/><path d="M55.42 97.354c24.276 0 43.955-19.679 43.955-43.954 0-24.275-19.68-43.953-43.954-43.953-24.275 0-43.954 19.678-43.954 43.953 0 24.275 19.679 43.954 43.954 43.954z" fill="#A7A7A7"/><path d="M86.32 84.266c17.092-17.093 17.092-44.806 0-61.9-17.094-17.092-44.807-17.092-61.9 0-17.093 17.094-17.093 44.807 0 61.9 17.093 17.093 44.806 17.093 61.9 0z" fill="#A6A6A6"/><path d="M86.134 84.06c17.021-17.022 17.021-44.619 0-61.64-17.021-17.022-44.618-17.022-61.64 0-17.021 17.021-17.021 44.618 0 61.64 17.022 17.021 44.619 17.021 61.64 0z" fill="#A5A5A5"/><path d="M55.264 96.567c23.97 0 43.402-19.432 43.402-43.403 0-23.97-19.432-43.402-43.402-43.402-23.971 0-43.403 19.432-43.403 43.402 0 23.97 19.432 43.403 43.403 43.403z" fill="#A4A4A4"/><path d="M53.952 105.699c29.187 0 52.849-23.662 52.849-52.85C106.801 23.662 83.139 0 53.951 0 24.765 0 1.103 23.662 1.103 52.85c0 29.187 23.662 52.849 52.85 52.849z" fill="url(#paint0_linear_44_1677)"/><path opacity=".2" d="M46.237 67.597l-.866 5.432-4.278 5.93 25.27 25.27c20.652-4.986 36.554-22.069 39.808-43.324L61.85 26.083l.577 1.076.236.709.08.498.052.42.052.814v.42l-.052.76-.079.71-.21 1.075-.157.682-.21.682-.236.761-.42 1.155-.578 1.39-.55 1.208-.42.814-.578 1.154-4.067 8.03" fill="#000"/><path d="M26.057 43.98v1.155h15.351V43.98a2.34 2.34 0 00-2.335-2.335H28.419a2.314 2.314 0 00-2.362 2.335zm31.096 6.14c-.446 2.625.026 4.278.997 5.668V52.22c0-.84-.367-1.601-.997-2.1z" fill="#fff"/><path d="M59.83 59.515a33.479 33.479 0 01-1.365-1.286l-.158-.158c-3.332-3.411-4.382-7.216 1.627-18.867 3.884-7.505 3.91-12.727.105-14.695-5.195-2.703-16.61 2.152-22.855 11.651a2.857 2.857 0 011.39.866c5.642-8.45 16.27-13.383 20.73-11.074 2.887 1.496 2.599 5.957-.813 12.517-7.269 14.066-4.75 17.792.263 22.279 2.309 2.073 4.697 4.199 5.72 8.528.84 3.543.604 5.983-.682 7.033-.656.55-1.522.735-2.44.735a8.33 8.33 0 01-1.811-.21c-.079.55-.236 1.102-.499 1.574a10.33 10.33 0 002.283.263c1.444 0 2.624-.368 3.49-1.103 1.81-1.522 2.23-4.434 1.234-8.685-1.155-4.829-3.963-7.348-6.22-9.368z" fill="#fff"/><path d="M56.588 72.894a3.831 3.831 0 10-1.761-7.457 3.831 3.831 0 001.76 7.457z" fill="#fff"/><path d="M58.15 76.283v-2.467a5.094 5.094 0 01-2.44.604 5.219 5.219 0 01-5.222-5.222 5.219 5.219 0 015.222-5.222 5.1 5.1 0 012.44.603v-2.493c-.105-.105-.236-.21-.341-.315-3.149-2.807-5.51-5.536-5.17-10.522-11.467 7.82-12.936 19.05-12.779 25.139a3.033 3.033 0 003.018 2.912h12.254a3.035 3.035 0 003.018-3.017zM32.355 40.227h5.012c.026-.052.053-.078.079-.13.551-.552.525-1.234.341-1.706a1.536 1.536 0 00-1.443-.971h-.578c-.42 0-.813.157-1.102.446l-2.309 2.361zm-3.49 10.969c.184-.183.499-.183.709 0 .183.184.183.499 0 .709a4.487 4.487 0 00-1.339 3.201v.053c0 2.046 1.312 3.752 3.15 4.382.262.079.55.157.839.184.21.026.42.052.63.052a4.625 4.625 0 004.618-4.618c0-.263.21-.499.499-.499a4.625 4.625 0 004.618-4.618 4.625 4.625 0 00-4.618-4.619h-9.368a4.625 4.625 0 00-4.619 4.619 4.566 4.566 0 003.307 4.408 5.451 5.451 0 011.574-3.254z" fill="#fff"/></g><defs><linearGradient id="paint0_linear_44_1677" x1="-7.392" y1="5.052" x2="83.327" y2="75.742" gradientUnits="userSpaceOnUse"><stop stop-color="#FFE765"/><stop offset="1" stop-color="#FFA100"/></linearGradient><clipPath id="clip0_44_1677"><path fill="#fff" d="M0 0h120v120H0z"/></clipPath></defs></svg>